<?xml version="1.0" encoding="utf-8"?>
<!-- Generator: Adobe Illustrator 19.2.1, SVG Export Plug-In . SVG Version: 6.00 Build 0)  -->
<svg version="1.1" id="Capa_1" xmlns="http://www.w3.org/2000/svg" xmlns:xlink="http://www.w3.org/1999/xlink" x="0px" y="0px"
	 viewBox="0 0 512 512" style="enable-background:new 0 0 512 512;" xml:space="preserve">
<style type="text/css">
	.st0{fill:#FFB606;}
</style>
<g id="Outline">
	<path class="st0" d="M360,448v-24c0-1.6-0.5-3.2-1.4-4.6L303.7,341l-10.3-77H304v-16h-12.7l-2.1-16h6.9c3.7,0,6.9-2.5,7.8-6.1
		l16-64c1.1-4.3-1.5-8.6-5.8-9.7c-0.6-0.2-1.3-0.2-1.9-0.2h-9.4c4.4-12.5-2.1-26.2-14.6-30.6c-2.6-0.9-5.3-1.4-8-1.4v-16h16
		c4.4,0,8-3.6,8-8V64c0-4.4-3.6-8-8-8h-13.8l5.5-22.1c0.7-2.7-0.1-5.6-2.1-7.6C284.6,25.3,274.8,16,256,16s-28.6,9.3-29.7,10.3
		c-2,2-2.8,4.9-2.1,7.6l5.5,22.1H216c-4.4,0-8,3.6-8,8v32c0,4.4,3.6,8,8,8h16v16c-13.3,0-24,10.7-24,24c0,2.7,0.5,5.4,1.4,8H200
		c-4.4,0-8,3.6-8,8c0,0.7,0.1,1.3,0.2,1.9l16,64c0.9,3.6,4.1,6.1,7.8,6.1h6.9l-2.1,16H208v16h10.6l-10.3,77l-54.9,78.4
		c-0.9,1.3-1.4,2.9-1.4,4.6v24c-13.3,0-24,10.7-24,24s10.7,24,24,24h208c13.3,0,24-10.7,24-24S373.3,448,360,448z M240,88h-16V72h16
		c4.4,0,8-3.6,8-8c0-0.7-0.1-1.3-0.2-1.9l-6.7-26.7c9.4-4.5,20.4-4.5,29.8,0l-6.7,26.7c-1.1,4.3,1.5,8.6,5.8,9.7
		c0.6,0.2,1.3,0.2,1.9,0.2h16v16h-16c-4.4,0-8,3.6-8,8v24h-16V96C248,91.6,244.4,88,240,88z M224,144c0-4.4,3.6-8,8-8h48
		c4.4,0,8,3.6,8,8s-3.6,8-8,8h-48C227.6,152,224,148.4,224,144z M210.2,168h91.5l-12,48h-67.5L210.2,168z M239,232h34l2.1,16h-38.3
		L239,232z M222.6,348.6c0.7-1,1.2-2.3,1.4-3.5l10.8-81.1h42.5l10.8,81.1c0.2,1.3,0.6,2.5,1.4,3.5l47.2,67.4H175.4L222.6,348.6z
		 M168,432h176v16H168V432z M360,480H152c-4.4,0-8-3.6-8-8s3.6-8,8-8h208c4.4,0,8,3.6,8,8S364.4,480,360,480z"/>
	<path class="st0" d="M472,448v-24c0-1.9-0.7-3.7-1.9-5.1l-38.5-46.3l-9.8-68.6H432v-16h-12.5l-2.5-17.7
		c12.3-4.9,18.2-18.9,13.3-31.2c-1.6-4.1-4.4-7.6-7.9-10.2c15.9-21.2,11.6-51.3-9.6-67.2s-51.3-11.6-67.2,9.6
		c-12.8,17.1-12.8,40.5,0,57.6c-10.6,7.9-12.7,23-4.8,33.6c2.6,3.5,6.2,6.2,10.2,7.9l-2.5,17.7H336v16h10.2l-10.1,70.9l15.8,2.3
		l10.5-73.1h43.3l10.4,73.1c0.2,1.5,0.8,2.8,1.8,4l29.1,34.9H376v16h80v16h-56v16h72c4.4,0,8,3.6,8,8s-3.6,8-8,8h-72v16h72
		c13.3,0,24-10.7,24-24S485.3,448,472,448z M360,256c-4.4,0-8-3.6-8-8s3.6-8,8-8h48c4.4,0,8,3.6,8,8s-3.6,8-8,8H360z M384,168
		c17.7,0,32,14.3,32,32c0,9.2-3.9,18-10.9,24h-42.3c-6.9-6-10.9-14.8-10.9-24C352,182.3,366.3,168,384,168z M364.7,288l2.3-16h34.1
		l2.3,16H364.7z"/>
	<path class="st0" d="M56,432h80v-16H65.1l29.1-34.9c0.9-1.1,1.6-2.5,1.8-4l10.4-73.1h43.3l10.4,73.1l15.8-2.3L165.8,304H176v-16
		h-12.5l-2.5-17.7c12.3-4.9,18.2-18.9,13.3-31.2c-1.6-4.1-4.4-7.6-7.9-10.2c15.9-21.2,11.6-51.3-9.6-67.2s-51.3-11.6-67.2,9.6
		c-12.8,17.1-12.8,40.5,0,57.6c-10.6,7.9-12.7,23-4.8,33.6c2.6,3.5,6.2,6.2,10.2,7.9L92.5,288H80v16h10.2l-9.8,68.6l-38.5,46.3
		c-1.2,1.4-1.9,3.2-1.9,5.1v24c-13.3,0-24,10.7-24,24s10.7,24,24,24h72v-16H40c-4.4,0-8-3.6-8-8s3.6-8,8-8h72v-16H56V432z M104,256
		c-4.4,0-8-3.6-8-8s3.6-8,8-8h48c4.4,0,8,3.6,8,8s-3.6,8-8,8H104z M128,168c17.7,0,32,14.3,32,32c0,9.2-3.9,18-10.9,24h-42.3
		c-6.9-6-10.9-14.8-10.8-24C96,182.3,110.3,168,128,168z M110.9,272h34.1l2.3,16h-38.7L110.9,272z"/>
</g>
</svg>
