<?xml version="1.0" encoding="utf-8"?>
<!-- Generator: Adobe Illustrator 19.2.1, SVG Export Plug-In . SVG Version: 6.00 Build 0)  -->
<svg version="1.1" id="Capa_1" xmlns="http://www.w3.org/2000/svg" xmlns:xlink="http://www.w3.org/1999/xlink" x="0px" y="0px"
	 viewBox="0 0 512 512" style="enable-background:new 0 0 512 512;" xml:space="preserve">
<style type="text/css">
	.st0{fill:#FFB606;}
</style>
<g id="outline">
	<path class="st0" d="M256,312c17.7,0,32-14.3,32-32s-14.3-32-32-32s-32,14.3-32,32C224,297.7,238.3,312,256,312z M256,264
		c8.8,0,16,7.2,16,16s-7.2,16-16,16c-8.8,0-16-7.2-16-16C240,271.2,247.2,264,256,264z"/>
	<path class="st0" d="M352,328h32c4.4,0,8-3.6,8-8v-32c0-4.4-3.6-8-8-8h-32c-4.4,0-8,3.6-8,8v32C344,324.4,347.6,328,352,328z
		 M360,296h16v16h-16V296z"/>
	<path class="st0" d="M416,328h32c4.4,0,8-3.6,8-8v-32c0-4.4-3.6-8-8-8h-32c-4.4,0-8,3.6-8,8v32C408,324.4,411.6,328,416,328z
		 M424,296h16v16h-16V296z"/>
	<path class="st0" d="M416,392h32c4.4,0,8-3.6,8-8v-32c0-4.4-3.6-8-8-8h-32c-4.4,0-8,3.6-8,8v32C408,388.4,411.6,392,416,392z
		 M424,360h16v16h-16V360z"/>
	<path class="st0" d="M128,328h32c4.4,0,8-3.6,8-8v-32c0-4.4-3.6-8-8-8h-32c-4.4,0-8,3.6-8,8v32C120,324.4,123.6,328,128,328z
		 M136,296h16v16h-16V296z"/>
	<path class="st0" d="M64,328h32c4.4,0,8-3.6,8-8v-32c0-4.4-3.6-8-8-8H64c-4.4,0-8,3.6-8,8v32C56,324.4,59.6,328,64,328z M72,296h16
		v16H72V296z"/>
	<path class="st0" d="M64,392h32c4.4,0,8-3.6,8-8v-32c0-4.4-3.6-8-8-8H64c-4.4,0-8,3.6-8,8v32C56,388.4,59.6,392,64,392z M72,360h16
		v16H72V360z"/>
	<path class="st0" d="M494.4,251.2l-24-32c-1.5-2-3.9-3.2-6.4-3.2H363.1L264,124.5V104h16c0,8.8,7.2,16,16,16h40c4.4,0,8-3.6,8-8V72
		c0-4.4-3.6-8-8-8h-24c0-8.8-7.2-16-16-16h-40c-4.4,0-8,3.6-8,8v68.3L141,216H48c-2.5,0-4.9,1.2-6.4,3.2l-24,32
		c-2.7,3.5-1.9,8.5,1.6,11.2c1.4,1,3.1,1.6,4.8,1.6v184c0,4.4,3.6,8,8,8h448c4.4,0,8-3.6,8-8V264c4.4,0,8-3.6,8-8
		C496,254.3,495.4,252.6,494.4,251.2z M472,248H328v-16h132L472,248z M312,328H200v-96h112V328z M213.3,216l42.7-37.4l42.7,37.4
		H213.3z M196.9,344h118.1l8,16H188.9L196.9,344z M328,80v24h-32c8.8,0,16-7.2,16-16v-8H328z M296,88h-32V64h32V88z M255.8,138.7
		l83.7,77.3H323l-61.7-54c-3-2.6-7.5-2.6-10.5,0L189,216h-23.4L255.8,138.7z M52,232h132v16H40L52,232z M184,264v70.1l-15.2,30.3
		c-0.5,1.1-0.8,2.3-0.8,3.5c0,0,0,0.1,0,0.1v-16c0-4.4-3.6-8-8-8h-32c-4.4,0-8,3.6-8,8v32c0,4.4,3.6,8,8,8h32c4.4,0,8-3.6,8-8v24H40
		V264H184z M152,360v16h-16v-16H152z M40,424h128v16H40V424z M216,440v-24c0-4.4,3.6-8,8-8s8,3.6,8,8v24H216z M280,440v-24
		c0-4.4,3.6-8,8-8s8,3.6,8,8v24H280z M312,440v-24c0-13.3-10.7-24-24-24s-24,10.7-24,24v24h-16v-24c0-13.3-10.7-24-24-24
		s-24,10.7-24,24v24h-16v-64h144v64H312z M344,440v-16h128v16H344z M472,408H344v-24c0,4.4,3.6,8,8,8h32c4.4,0,8-3.6,8-8v-32
		c0-4.4-3.6-8-8-8h-32c-4.4,0-8,3.6-8,8v16c0,0,0-0.1,0-0.1c0-1.2-0.3-2.4-0.8-3.5L328,334.1V264h144V408z M360,376v-16h16v16H360z"
		/>
</g>
</svg>
