<?xml version="1.0" encoding="utf-8"?>
<!-- Generator: Adobe Illustrator 19.2.1, SVG Export Plug-In . SVG Version: 6.00 Build 0)  -->
<svg version="1.1" id="Capa_1" xmlns="http://www.w3.org/2000/svg" xmlns:xlink="http://www.w3.org/1999/xlink" x="0px" y="0px"
	 viewBox="0 0 438.5 438.5" style="enable-background:new 0 0 438.5 438.5;" xml:space="preserve">
<style type="text/css">
	.st0{fill:#FFB606;}
</style>
<g>
	<path class="st0" d="M329.4,409.1c33.6-19.6,60.2-46.2,79.8-79.8c19.6-33.6,29.4-70.3,29.4-110.1c0-39.8-9.8-76.5-29.4-110.1
		c-19.6-33.6-46.2-60.2-79.8-79.8C295.7,9.8,259,0,219.2,0c-39.8,0-76.5,9.8-110.1,29.4C75.6,49.1,49,75.7,29.4,109.3
		C9.8,142.9,0,179.6,0,219.3s9.8,76.5,29.4,110.1c19.6,33.6,46.2,60.2,79.8,79.8c33.6,19.6,70.3,29.4,110.1,29.4
		C259.1,438.5,295.8,428.7,329.4,409.1z M206.7,361.5l-26-26c-3.6-3.6-5.4-7.9-5.4-12.8c0-4.9,1.8-9.2,5.4-12.8l53.9-54l-143.3,0
		c-4.9,0-9.2-1.8-12.8-5.4c-3.6-3.6-5.4-7.9-5.4-12.8l0-36.5c0-4.9,1.8-9.2,5.4-12.8c3.6-3.6,7.9-5.4,12.8-5.4l143.3,0l-54-53.9
		c-3.4-3.4-5.1-7.7-5.1-12.8c0-5.1,1.7-9.4,5.1-12.9l26-26c3.4-3.4,7.7-5.1,12.9-5.1c5.1,0,9.4,1.7,12.8,5.1l103.4,103.3l26,26
		c3.4,3.4,5.1,7.7,5.1,12.8c0,5.1-1.7,9.4-5.1,12.9l-26,26L232.4,361.4c-3.4,3.4-7.7,5.1-12.8,5.1
		C214.5,366.6,210.2,364.9,206.7,361.5z"/>
</g>
</svg>
