<?xml version="1.0" encoding="utf-8"?>
<!-- Generator: Adobe Illustrator 19.2.1, SVG Export Plug-In . SVG Version: 6.00 Build 0)  -->
<svg version="1.1" id="Layer_1" xmlns="http://www.w3.org/2000/svg" xmlns:xlink="http://www.w3.org/1999/xlink" x="0px" y="0px"
	 viewBox="0 0 512 512" style="enable-background:new 0 0 512 512;" xml:space="preserve">
<style type="text/css">
	.st0{fill:#FFB606;}
</style>
<path class="st0" d="M256,0C114.8,0,0,114.8,0,256c0,64.2,23.8,122.9,62.9,167.8c0.1,0.1,0.2,0.3,0.4,0.4
	C110.3,478,179.2,512,256,512c74.4,0,144.8-32.2,193.1-88.3c0.3-0.3,0.4-0.7,0.6-1c0.3-0.5,0.7-1,0.9-1.6c0.2-0.6,0.3-1.2,0.4-1.8
	c0.1-0.4,0.2-0.8,0.2-1.2c0-0.1-0.1-0.2-0.1-0.3c0-0.6-0.2-1.2-0.4-1.8c-0.1-0.5-0.2-1-0.4-1.4c-0.2-0.4-0.5-0.8-0.8-1.2
	c-0.4-0.5-0.7-1-1.1-1.5c-0.1-0.1-0.1-0.2-0.2-0.2c-0.3-0.3-0.7-0.4-1-0.6c-0.5-0.3-1-0.7-1.6-0.9c-0.6-0.2-1.2-0.3-1.7-0.3
	c-0.4-0.1-0.8-0.2-1.2-0.2h-87.8L321.4,350l50.4-85.5h67.1l42.7,69.8c-6.5,18.7-15.2,36.7-26.3,53.4c-2.6,3.9-1.5,9.2,2.4,11.8
	c3.9,2.6,9.2,1.5,11.8-2.4C497.3,355.2,512,306.4,512,256C512,114.8,397.2,0,256,0z M210.6,21.5c14.7-2.9,29.9-4.4,45.4-4.4
	c15.5,0,30.7,1.5,45.4,4.4l38.8,72.3l-33.8,59.8H205.7l-33.8-59.8L210.6,21.5z M73.2,102.4h84l33.8,59.8l-50.7,85.3H73L30.2,178
	C39.9,150.1,54.5,124.5,73.2,102.4z M73.2,409.6c-18.7-22.2-33.3-47.8-43-75.7L73,264.5h67.2l50.8,85.4l-33.6,59.7H73.2z
	 M340.1,418.2l-40.3,72.7c-14.3,2.7-29,4.1-43.8,4.1c-15.9,0-31.3-1.6-46.3-4.5L172,418.5l33.8-60.1h51c0.5,0.2,1,0.3,1.5,0.3h2.7
	c0.5,0,1-0.1,1.5-0.3h44L340.1,418.2z M438.9,247.5h-67.2v0l-50.6-85.4l33.7-59.7h84c18.5,22,33.2,47.5,42.8,75.2L438.9,247.5z"/>
</svg>
