<?xml version="1.0" encoding="utf-8"?>
<!-- Generator: Adobe Illustrator 19.2.1, SVG Export Plug-In . SVG Version: 6.00 Build 0)  -->
<svg version="1.1" id="Layer_1" xmlns="http://www.w3.org/2000/svg" xmlns:xlink="http://www.w3.org/1999/xlink" x="0px" y="0px"
	 viewBox="0 0 512 512" style="enable-background:new 0 0 512 512;" xml:space="preserve">
<style type="text/css">
	.st0{fill:#FFB606;}
</style>
<path class="st0" d="M503.7,469.3H60c-4.7,0-8.5-3.8-8.5-8.5V102.4c0-4.7,3.8-8.5,8.5-8.5h443.7c4.7,0,8.5,3.8,8.5,8.5v358.4
	C512.3,465.5,508.4,469.3,503.7,469.3z M68.5,452.3h426.7V110.9H68.5V452.3z"/>
<path class="st0" d="M60,418.1H8.8c-4.7,0-8.5-3.8-8.5-8.5V51.2c0-4.7,3.8-8.5,8.5-8.5h443.7c4.7,0,8.5,3.8,8.5,8.5v51.2
	c0,4.7-3.8,8.5-8.5,8.5h-384v298.7C68.5,414.3,64.7,418.1,60,418.1L60,418.1z M17.3,401.1h34.1V102.4c0-4.7,3.8-8.5,8.5-8.5h384
	V59.7H17.3L17.3,401.1z"/>
<path class="st0" d="M503.7,469.3H275.2c-3.4,0-6.4-2-7.8-5s-0.8-6.7,1.4-9.2l134.6-151.5c3.2-3.6,9.5-3.6,12.8,0l93.9,105.6
	c1.4,1.6,2.2,3.6,2.2,5.7v45.9C512.3,465.5,508.4,469.3,503.7,469.3L503.7,469.3z M294.2,452.3h201v-34.1l-85.3-96L294.2,452.3z"/>
<path class="st0" d="M275.2,469.3H60c-4.7,0-8.5-3.8-8.5-8.5V318.9c0-2.1,0.8-4.1,2.2-5.7l110.9-124.8c3.2-3.6,9.5-3.6,12.8,0
	l170.7,192c2.9,3.2,2.9,8.1,0,11.3l-66.4,74.7C280,468.3,277.7,469.3,275.2,469.3L275.2,469.3z M68.5,452.3h202.9l58.8-66.1
	L170.9,207L68.5,322.2L68.5,452.3z"/>
<path class="st0" d="M350.1,256c-23.5,0-42.7-19.1-42.7-42.7s19.1-42.7,42.7-42.7s42.7,19.1,42.7,42.7S373.6,256,350.1,256z
	 M350.1,187.7c-14.1,0-25.6,11.5-25.6,25.6c0,14.1,11.5,25.6,25.6,25.6s25.6-11.5,25.6-25.6C375.7,199.2,364.2,187.7,350.1,187.7z"
	/>
</svg>
