<?xml version="1.0" encoding="utf-8"?>
<!-- Generator: Adobe Illustrator 19.2.1, SVG Export Plug-In . SVG Version: 6.00 Build 0)  -->
<svg version="1.1" id="Layer_3" xmlns="http://www.w3.org/2000/svg" xmlns:xlink="http://www.w3.org/1999/xlink" x="0px" y="0px"
	 viewBox="0 0 512 512" style="enable-background:new 0 0 512 512;" xml:space="preserve">
<style type="text/css">
	.st0{fill:#FFB606;}
</style>
<path class="st0" d="M460.7,219.3c-5.2-29.5-16.9-57.5-34-82.1l21.6-28.3l-45.2-45.3l-28.3,21.6c-24.6-17.1-52.6-28.8-82.1-34
	L288,16h-64l-4.7,35.3c-29.5,5.2-57.5,16.9-82.1,34l-28.3-21.6l-45.3,45.2l21.6,28.3c-17.1,24.6-28.8,52.6-34,82.1L16,224v64
	l35.3,4.7c5.2,29.5,16.9,57.5,34,82.1l-21.6,28.3l45.3,45.3l28.3-21.6c24.6,17.1,52.6,28.8,82.1,34L224,496h64l4.7-35.3
	c29.5-5.2,57.5-16.9,82.1-34l28.3,21.6l45.3-45.3l-21.6-28.3c17.1-24.6,28.8-52.6,34-82.1L496,288v-64L460.7,219.3z M256,416
	c-88.4,0-160-71.6-160-160S167.6,96,256,96s160,71.6,160,160S344.4,416,256,416z"/>
<path class="st0" d="M352,200v-48H160v48h16v32h-16v48h16v32h-16v48h192v-48h-16v-32h16v-48h-16v-32H352z M192,344h-16v-16h16V344z
	 M192,264h-16v-16h16V264z M192,184h-16v-16h16V184z M216,344h-16v-16h16V344z M216,264h-16v-16h16V264z M216,184h-16v-16h16V184z
	 M240,344h-16v-16h16V344z M240,264h-16v-16h16V264z M240,184h-16v-16h16V184z"/>
</svg>
