<?xml version="1.0" encoding="utf-8"?>
<!-- Generator: Adobe Illustrator 19.2.1, SVG Export Plug-In . SVG Version: 6.00 Build 0)  -->
<svg version="1.1" id="Capa_1" xmlns="http://www.w3.org/2000/svg" xmlns:xlink="http://www.w3.org/1999/xlink" x="0px" y="0px"
	 viewBox="0 0 287.3 288.1" style="enable-background:new 0 0 287.3 288.1;" xml:space="preserve">
<style type="text/css">
	.st0{display:none;}
	.st1{fill:none;}
	.st2{fill:#FAB515;}
</style>
<g id="Capa_2" class="st0">
	
		<image style="display:inline;overflow:visible;enable-background:new    ;" width="359" height="407" xlink:href="ABC2223C.png"  transform="matrix(0.8496 0 0 0.8449 -6.3334 -2.4017)">
	</image>
</g>
<g id="Capa_1_1_" class="st0">
	
		<image style="display:inline;overflow:visible;enable-background:new    ;" width="1400" height="1404" xlink:href="ABC2223D.png"  transform="matrix(0.2035 0 0 0.2035 1.4889 -0.4017)">
	</image>
</g>
<g id="Capa_3">
	<g>
		<g>
			<path class="st1" d="M42.7,198.8c1.4-4.1,4-7.2,8-9.2c3.5-1.8,5.6-3.4,8-6.6c2.2-3,4.6-5.9,5.2-9.6c-3.7,1.9-5.1,8.3-10.2,6.1
				c-0.5-0.2-0.7-0.6-0.7-1c-0.1-0.4,0.1-0.9,0.7-1c1.2-0.3,2.1-2.1,2.7-3c0.3-0.5,0.5-1,0.7-1.6c-2.7,1.8-5.7,2.8-8.8,3.7
				c-1.2,0.4-1.8-1.6-0.5-1.9c0.1,0,0.1,0,0.2-0.1c4.1-5.6,6.8-11,5.5-17.8c-1.2,2.4-2.4,4.9-4.4,6.7c-2.4,2.2-5.5,2.9-8.7,3.7
				c-1.2,0.3-1.7-1.4-0.7-1.8c0-0.3,0.1-0.7,0.5-0.9c1.2-0.8,2.1-1.9,2.5-3.4c0.2-0.8,0.2-1.3-0.7-1c-0.1,0-0.3,0.1-0.4,0.2
				c-0.2,0.1-0.3,0.3-0.5,0.4c-0.1,0.2-0.3,0.4-0.4,0.6c-0.2,0.3-0.4,0.5-0.7,0.5c-0.4,0.4-0.7,0.9-1,1.5c-1.2,2.6-2.4,5.1-3.6,7.7
				c-0.5,1.2-2.3,0.1-1.7-1c1.3-2.8,2.5-5.6,3.9-8.3c1.2-2.2,3.2-3,4.8-4.8c-0.9-0.9-1.8-0.9-2.8-0.2c-0.7,0.4-1.4,0.9-1.9,1.5
				c-1,1-1.9,2.1-2.7,3.3c-1.7,2.4-2.1,4.6-1.9,7.6c0.1,1.3-1.9,1.3-2,0V169c-0.4,0.2-0.8,0.3-1.2-0.1c-2.5-2-5.7-5.9-9.2-5.7
				c0.9,1.7,4.1,3.6,5.2,4.6c1.8,1.5,3.7,3.1,5.5,4.6c1,0.8-0.4,2.2-1.4,1.4c-1.2-1-2.4-2-3.6-3c-0.2,0.2-0.5,0.3-0.9,0.2
				c-1.8-0.6-3.7-0.3-5.2,0.8s-2.1,2.8-2.5,4.5c2.6-0.4,4.7-2.5,7.4-2.6c1.9-0.1,3.8,0.6,5.2,1.7c2.1,1.6,3.2,4.3,5.2,6
				c1,0.9,2.1,1.6,3,2.4c0.4,0.1,0.6,0.3,0.6,0.6c0.3,0.3,0.6,0.7,0.8,1.1c0.7,1.1-1.1,2.1-1.7,1c-0.2-0.3-0.4-0.6-0.7-0.9
				c-2.3-0.4-4.8-1-7.1-1c-2.8,0-4,1.2-6.3,2.3c-1.8,0.9-3.7,1.5-5.6,1.8c1.6,0.8,3.3,1.5,5.1,2.1c1.2,0.4,0.7,2.2-0.4,1.9
				c-0.1,0-0.1,0-0.2,0c-3.3,0-7.4-0.6-10.7,0.4c4.6,3.2,12.2,4.9,17.4,5.2C34,198.6,38.3,197.6,42.7,198.8z"/>
			<path class="st1" d="M245,49.7c0,0.1,0,0.3,0,0.4c0.1-0.1,0.1-0.2,0.2-0.2C245.1,49.8,245,49.7,245,49.7z"/>
			<path class="st1" d="M253,57L253,57c-2.7-1.4-4.4-4.9-7.6-5.4c-0.2,0-0.3-0.1-0.4-0.2c0.2,3.3,1,6.6,2.7,9.6
				c0.6,1-0.8,1.9-1.5,1.3c-0.2-0.1-0.4-0.2-0.6-0.4c-1.1-1.6-2.6-2.3-4.1-3.5c-0.9-0.6-1.7-1.3-2.5-1.9c0,0.9,0,1.8,0.3,2.6
				c0.5,2,2.1,3.2,3.3,4.7c1.9,2.5,3.1,5.6,6.3,6.8c1.2,0.5,0.7,2.4-0.5,1.9c-0.4-0.2-0.8-0.3-1.1-0.5c-0.1,0-0.3,0-0.4,0
				c-1.9-0.6-3-2.3-4.7-3.1c-1.4-0.6-2.3-1.4-3.2-2.4c0,1,0,1.9,0.2,2.9c0.4,1.7,1.5,2.3,2.8,3.4s1.9,2.7,2.9,4.1
				c0.8,0.4,0.9,1.6-0.1,1.8c-1.5,0.3-2.6-0.4-3.4-1.6c-1-1.4-1.9-2.5-3.4-3.2c-0.1,4.2,4.2,8.4,7,11.1c3,2.8,6.5,4.8,10.4,6.2
				c0.2-0.1,0.4-0.2,0.6-0.2c8.6,0.7,11.9-7.7,14.6-14.5c-1.4,0.6-2.7,1.3-4,2c-1.2,1.1-2.6,1.9-4.2,2.5c-1.2,0.4-1.7-1.5-0.5-1.9
				c0.2-0.1,0.5-0.2,0.7-0.3c0-0.2,0.2-0.5,0.5-0.6c0.7-0.4,1.5-0.8,2.2-1.2c1.3-1.3,2-3,2.9-5.1c1-2.2,2.6-4.2,3.3-6.4
				c-2.1,2.7-5.1,4.6-8.5,5.4c-0.2,0-0.3,0-0.5,0c-0.2,0.2-0.3,0.4-0.5,0.6c-0.7,1-2.5,0-1.7-1c2-2.8,4.6-5.6,5-9.2
				c0.2-2.1,0.2-4.3,0.1-6.4c-0.8,1.1-1.8,2.1-2.5,3.2c-1.5,2.1-2.5,4.4-4.6,6.1c-0.8,0.6-1.9-0.2-1.7-0.9c-0.3-0.3-0.4-0.7-0.2-1.2
				c2-3.3,3-6.9,2.9-10.7c-0.5,0.8-1.1,1.5-1.6,2.4c-1,1.8-1.8,3.5-3.4,4.8C253,59.5,252,57.8,253,57z"/>
			<path class="st1" d="M46.5,208.6c0.7,0.5,0.5,1.5-0.1,1.8c-0.2,0.2-0.5,0.3-0.9,0.2c-0.6-0.1-1.2-0.2-1.8-0.2
				c-0.2,0.2-0.5,0.3-0.8,0.2c-1.3-0.2-6.1,0.3-6.2,2.3c0,0,0,0,0,0.1c2,1.2,6.2-0.2,8.1-0.5c1.9-0.3,3.6,0.2,5.4,0.8
				c-0.4-1.4-1.4-2.6-2.5-3.7c0,0,0-0.1-0.1-0.1l0,0c-0.2-0.2-0.2-0.5-0.2-0.7c-0.8-5.6-0.8-10.6,2.9-15.1h-0.1
				c-0.4-0.1-2.1,2.7-2.3,3.1c-0.6,0.9-1.1,1.9-1.5,2.9c-0.7,1.7-1.2,3.3-2.4,4.6c0,0.5-0.3,0.9-1,0.9c-2.2,0-9.9-2.8-11.9-0.6
				c3,0.4,5.9,1.4,9,1.3C43.3,205.8,44,206.8,46.5,208.6z"/>
			<path class="st1" d="M91.4,267.2c-0.3,0.1-0.6,0.5-0.5,1.5c0.1,1.2,0.9,1.7,1.2,1.8h16l0.9-3.3H91.4z"/>
			<path class="st1" d="M195.7,267.2h-14.4l1.3,3.3h12.5c0.4-0.1,1.5-0.5,1.4-1.5C196.3,267.8,195.9,267.4,195.7,267.2z"/>
			<path class="st1" d="M244.3,32.4c0.1,0.5-0.3,1-0.8,1.1c0.2,1,0.3,1.9,0.5,2.9c0.3,1.8,0.7,2.9,2.4,4c0.6,0.4,0.6,1,0.3,1.4
				c0,0.1,0,0.3-0.1,0.5c-1,2.5,0.7,3.8,2.5,5.2c0.9,0.7,1.6,1.6,2.4,2.4c0.2-0.1,0.5-0.1,0.7-0.1c0.5,0.1,0.7,0.6,0.7,1.1
				c0.4-0.8,0.8-1.6,0.9-2.7c0.1-1.1,0-2.5-0.1-3.6c-0.1-1.3-0.2-3.2-0.7-4.5c-0.7-1.9-1.4-2.3-3-2.3c0.1,0.4,0.2,0.7,0.4,1.1
				c0.5,1.2-1.5,1.7-1.9,0.5c-0.9-2.2-0.9-5.9-3.6-6.7C244.6,32.6,244.4,32.5,244.3,32.4z"/>
			<path class="st1" d="M244,31.9L244,31.9c0.1,0.1,0.1,0.1,0.2,0.1c-0.1-0.2-0.1-0.3,0-0.5C244,31.6,244,31.7,244,31.9z"/>
			<path class="st1" d="M273.9,139.7c-0.4,0.5-0.8,1-1.4,1.4c-1.1,0.7-2.1-1-1-1.7s1.7-2.3,2.5-3.3s1.9-1.7,2.6-2.7
				c1.5-1.9,2.3-4.6,2.8-7.2c-1.8,2.1-4,3.6-6.6,4.5c-1.2,0.4-1.7-1.5-0.5-1.9c3.3-1.2,5.6-3.5,7.5-6.4c1.3-1.9,2.6-3.9,3.5-6.1
				c-2.8,1.4-5.6,2.8-8.3,4.2c-0.9,0.5-1.7-0.5-1.4-1.3c0-0.2,0-0.4,0.1-0.6c1.3-2.3,3.1-4.3,4.6-6.4c0.9-1.3,1.7-2.6,2.3-4.1
				c0.2-0.5,0.9-2.7,1.3-2.8c-0.3,0.1-0.5,0-0.7-0.1c-0.1,0.1-0.2,0.2-0.4,0.2c-3.6,1.2-6.5,3.7-10,5.2c-1.5,0.6-3.2,0.8-4.6,1.6
				c-1.9,1.1-2.7,3.5-3.7,5.5c-0.5,0.9-1.6,0.5-1.8-0.3c-0.4,0.2-0.9,0.2-1.2-0.2c-0.3-0.1-0.6-0.4-0.6-0.9c0-0.1,0-0.2,0-0.3
				c-1.8-4.1-5.8-6-9.3-8.4c-2.1-1.4-4-3-5.7-4.7c0.4,3.8,0.9,7.5,2.5,11.1c0,0,0,0,0,0.1c0.8,0.7-0.2,2.1-1.2,1.6
				c-2.1-1.2-3.6-3.5-5.1-5.4c-1.1-1.4-2.1-2.9-3.1-4.4c-0.3,2.7,0.2,5.2,1.2,7.9c1,2.6,2.3,7.8,5.2,9c1.2,0.5,0.7,2.4-0.5,1.9
				c-2.7-1.1-3.9-3.6-4.9-6.2c-0.1,0-0.2,0-0.2,0c-0.4-0.2-0.8-0.3-1.1-0.5c0.2,2,1.5,4.1,2.3,5.8c0.9,1.8,1.8,3.5,2.8,5.2
				c0.6,1.1-1.1,2.1-1.7,1c-1.2-2-2.2-4-3.2-6.1c-0.1,0.1-0.2,0.1-0.3,0.2c-0.7,0.3,3.3,9.7,3.7,10.7c1.6,4,2.8,8.6,5.9,11.6
				c3.3,3.2,8,4.6,9.9,8.6c0.6-0.5,1.4-0.9,2.4-1.2c3.3-1,6.3-1.5,9.4-3.5c5.5-3.5,9.7-8.5,12.6-14.3c-1.6,0.3-3,1-4.2,2.1
				C275.5,139,274.9,139.6,273.9,139.7z"/>
			<path class="st1" d="M245.3,204.6c-0.6,0-0.9-0.4-1-0.9c-1.2-1.4-1.6-3-2.4-4.6c-0.5-1.1-1.1-2.2-1.7-3.2
				c-0.2-0.3-1.8-2.8-2.1-2.8H238c3.7,4.5,3.6,9.5,2.9,15.1c0.1,0.2,0,0.5-0.2,0.7l0,0c0,0,0,0.1-0.1,0.1c-1,1.1-2.1,2.3-2.5,3.7
				c1.7-0.6,3.5-1.1,5.4-0.8c2,0.3,6.1,1.7,8.1,0.5c0,0,0,0,0-0.1c-0.1-1.9-4.9-2.5-6.2-2.3c-0.3,0.1-0.6,0-0.8-0.2
				c-0.6,0-1.2,0-1.8,0.2c-0.4,0.1-0.7,0-0.9-0.2c-0.5-0.3-0.7-1.3-0.1-1.8c2.4-1.9,3.2-2.8,6.4-2.6c3.1,0.1,6-0.9,9-1.3
				C255.3,201.8,247.5,204.6,245.3,204.6z"/>
			<path class="st1" d="M84.9,233.3c0.2-6.2,0.5-19.1-5.7-23.1c0.5,2.3,0.8,4.4,1,5.7s-1.7,1.8-1.9,0.5c-0.5-3.1-2.3-15.1-6.5-15.7
				c-0.2,0.5-0.7,0.7-1.2,0.6c0,0.1,0.1,0.2,0.1,0.3c0.6,2.1,1,4.3,1.7,6.4c0.5,1.7,1.2,3.2,1,5c-0.1,1.3-2.1,1.3-2,0
				c0.2-2.5-1.2-5.2-1.8-7.6c-0.6-2.3-1.1-6.4-3.4-7.8c1.8,3.3,0.1,8.9-1.2,11.9c-0.5,1.1-2,0.2-1.8-0.9c-1.1-1.9-1.5-3.9-2.1-6
				s-2.2-3.6-4.2-4c0.6,1.7,0.8,3.4,0.5,5.2c-0.3,2-1.4,3.6-2.1,5.5c-0.8,2.6-0.6,5.5-0.2,8.2c0,0.1,0,0.2,0,0.3
				c0.1,0,0.1,0.1,0.2,0.1c1.1,0.6,0.1,2.4-1,1.7c-4.8-2.8-7.6,3.6-11.8,4.8c-2.6,0.8-5.5,0.7-8.3,0.5c2.8,2.3,5.4,4.1,9.4,4.5
				c1.3,0.1,1.3,2.1,0,2c-0.1,0-0.3,0-0.4,0c-0.1,0-0.1,0.1-0.2,0.1c-1.7,0.3-3.7,0.9-5.7,1.1c3.5,1.6,7.3,2.6,11.2,2.7
				c1.2,0,1.3,1.8,0.2,2c-0.1,0.1-0.1,0.1-0.2,0.2c-0.4,0.2-0.9,0.4-1.4,0.5c5.3,1.6,10.8,2.1,16.3,2.7c0.2,0,0.4,0.1,0.5,0.2
				c1.1,0.2,1,1.9-0.2,2c-3.4,0.1-6.7,0.8-9.9,1.8c-0.5,3.8,16.7,3.7,19.1,3.5c4.3-0.2,8.2-3.1,12.3-3
				C83.6,241.8,84.7,237.3,84.9,233.3z"/>
			<path class="st1" d="M265.5,192.1c-0.1,0-0.2,0-0.2,0c-1.1,0.2-1.5-1.5-0.4-1.9c1.7-0.6,3.4-1.3,5.1-2.1c-1.9-0.4-3.8-1-5.6-1.8
				c-2.3-1.1-3.5-2.3-6.3-2.3c-2.3,0-4.8,0.6-7.1,1c-0.3,0.3-0.5,0.6-0.7,0.9c-0.6,1.1-2.4,0.1-1.7-1c0.2-0.4,0.5-0.8,0.8-1.1
				c0-0.3,0.2-0.6,0.6-0.7c1.2-1.1,2.6-1.8,3.8-3.1c1.6-1.7,2.5-3.9,4.3-5.3c1.7-1.3,3.8-1.9,5.9-1.6c2.4,0.3,4.4,2.1,6.8,2.5
				c-0.4-1.7-1-3.4-2.5-4.5s-3.4-1.3-5.2-0.8c-0.4,0.1-0.7,0-0.9-0.2c-1.2,1-2.4,2-3.6,3c-1,0.8-2.4-0.6-1.4-1.4
				c1.8-1.5,3.7-3.1,5.5-4.6c1-0.8,2-1.6,2.9-2.4c0.6-0.5,1.7-1.3,2.3-2.1c-3.5-0.2-6.7,3.7-9.2,5.7c-0.4,0.3-0.9,0.3-1.2,0.1v0.1
				c-0.1,1.3-2.1,1.3-2,0c0.2-2.9-0.2-5.2-1.9-7.6c-0.8-1.1-1.6-2.3-2.7-3.3c-0.6-0.6-1.2-1.1-1.9-1.5c-1-0.8-1.9-0.7-2.8,0.2
				c1.6,1.8,3.6,2.6,4.8,4.8c1.4,2.7,2.6,5.6,3.9,8.3c0.5,1.2-1.2,2.2-1.7,1c-1.2-2.6-2.4-5.2-3.6-7.7c-0.3-0.6-0.6-1.1-1-1.5
				c-0.3,0-0.5-0.2-0.7-0.5c-0.1-0.2-0.2-0.4-0.4-0.6c-0.1-0.1-0.3-0.2-0.4-0.3c-0.2-0.1-0.4-0.2-0.7-0.3c-0.9-0.2-0.7,0.4-0.6,1.1
				c0.3,1.4,1.2,2.6,2.5,3.4c0.4,0.2,0.5,0.6,0.5,0.9c1,0.5,0.4,2.1-0.7,1.8c-3.1-0.8-6.2-1.5-8.7-3.7c-1.9-1.8-3.2-4.3-4.4-6.7
				c-1.3,6.8,1.4,12.1,5.5,17.8c0.1,0,0.1,0,0.2,0.1c1.2,0.4,0.7,2.3-0.5,1.9c-3.1-1-6.1-2-8.8-3.7c0.2,0.5,0.4,1.1,0.7,1.6
				c0.5,1,1.5,2.8,2.7,3c0.6,0.1,0.8,0.6,0.7,1c0,0.4-0.2,0.8-0.7,1c-5.2,2.2-6.5-4.3-10.2-6.1c0.6,3.7,3.1,6.6,5.2,9.6
				c2.6,3.5,4.2,4.7,8,6.6c3.9,2,6.6,5.1,8,9.2c4.4-1.3,8.7-0.2,13.3-0.4c5.1-0.2,12.8-2.1,17.4-5.2
				C272.9,191.5,268.8,192.1,265.5,192.1z"/>
			<path class="st1" d="M182.4,264.2c-1.1-0.6-1.9-1.5-2.6-2.6c-0.9-1.7-1-3.3-1.1-5c-0.4,0.2-1,0.5-1.4,0.7l2.8,7h2.3V264.2z"/>
			<path class="st1" d="M177.4,273.5l0.5,1.1l-2.5-0.2c-13.5-1-26-0.5-27.2,1.2l-1.1,2l-1.4-1.9c-1.4-1.9-16.3-2.5-29.2-1.8
				l-2.2,0.1l0.2-0.6h-4.1l-2.1,7.7c4.1-0.6,12.3-1.8,20.2-1.8c7.1,0,13.9,0.9,17.4,3.8c7.2-5.9,29.6-3.3,37.7-2.1l-3-7.6
				L177.4,273.5z"/>
			<path class="st1" d="M192,253.3c0.7-0.1,1.6-0.2,2.4-0.1c-0.9-0.4-1.8-0.6-2.8-0.5c-0.3,0.2-0.7,0.3-1.1,0.1
				c-0.8-0.5-1.7-0.9-2.5-1.3c-2.3,0.1-4.2,0.1-6.5,0.9c-1.8,0.6-3.6,0.9-5.6,0.9c-0.1,0-0.1,0-0.2,0l0.8,2.1c1.4-0.7,3.3-1.7,4,0.1
				c0.2,0.5,0,1.2,0,1.8c0.1,1,0.3,2,0.7,2.9c0.6,1.3,1.6,2.3,2.9,2.8c0.6,0.2,0.8,0.8,0.6,1.3h2.6c-1.9-1.4-3.8-3.8-1.7-5.7
				c1.3-1.2,3.7-1.2,5.4-1.6c0.6-0.1,3.8-0.7,3.9-1.2c0.2-0.9-2.4-0.5-3-0.5C190.7,255.5,190.8,253.5,192,253.3z"/>
			<path class="st1" d="M212,249.5c-0.5-0.1-1-0.2-1.5-0.4c-0.8-0.2-1.7-0.4-2.5-0.6c-2-0.5-3.9-1.1-5.9-0.9c-0.5,0-0.8-0.3-0.9-0.7
				l0,0c-0.9,0.6-2.1-0.7-1.2-1.5c0.2-0.2,0.3-0.3,0.5-0.5c0-0.1-0.1-0.3,0-0.5c0.3-2.1,0.7-4.7-0.4-6.7c-0.4-0.6-1.9-2.5-2.9-1.5
				c-0.2,0.1,0.1,1.9,0.1,2.2c-0.2,3-1.2,6-1.9,8.9c-0.3,1.3-2.2,0.7-1.9-0.5c0.4-1.5,0.8-3.1,1.2-4.7c-0.1-0.1-0.2-0.2-0.2-0.4
				c-0.1-0.7-0.6-1.7-1-1.1c-0.1,0.1-0.1,0.9-0.2,1c-0.2,1-0.5,1.8-0.9,2.7c-0.8,2-1.7,3.9-2.6,5.8c0.5,0.2,1,0.5,1.5,0.7
				c2-0.3,3.6,0.2,5.4,1.1c1.4,0.7,2.6,1.7,4.1,2.1c0.9,0.2,4.5,0,2.2-1.2c-0.4-0.2-0.5-0.5-0.5-0.8c-0.9-0.2-1.7-0.4-2.3-0.4
				c-1.3,0-1.3-2,0-2c1.7,0.1,3.4,0.4,5.1,0.8c1.8,0.4,4.6,1.7,6.4,1.1C212.9,250.2,213.1,249.6,212,249.5z"/>
			<polygon class="st1" points="116.5,267.2 112.1,267.2 111.2,270.5 115.4,270.5 			"/>
			<path class="st1" d="M15.8,141.8c-0.7-0.4-1.1-0.9-1.4-1.4c-0.9-0.1-1.5-0.7-2.3-1.4c-1.2-1.1-2.6-1.8-4.2-2.1
				c2.9,5.8,7.1,10.8,12.6,14.3c3.1,2,6,2.5,9.4,3.5c1,0.3,1.8,0.6,2.4,1.2c1.8-4.1,6.5-5.4,9.9-8.6c3.1-3,4.3-7.6,5.9-11.6
				c0.4-1,4.4-10.4,3.7-10.7c-0.1,0-0.2-0.1-0.3-0.2c-1,2.1-2.1,4.1-3.2,6.1c-0.6,1.1-2.4,0.1-1.7-1c1-1.7,1.9-3.4,2.8-5.2
				c0.9-1.7,2.2-3.8,2.4-5.8c-0.4,0.2-0.7,0.4-1.2,0.5c-0.1,0-0.2,0-0.2,0c-1,2.6-2.3,5.1-4.9,6.2c-1.2,0.5-1.7-1.5-0.5-1.9
				c2.9-1.1,4.2-6.4,5.2-9c1-2.7,1.5-5.2,1.2-7.9c-1,1.5-2,3-3.1,4.4c-1.4,1.9-3,4.2-5.1,5.4c-1,0.6-2-0.9-1.2-1.6c0,0,0,0,0-0.1
				c1.6-3.7,2.1-7.3,2.5-11.1c-1.7,1.8-3.7,3.3-5.7,4.7c-3.6,2.4-7.6,4.3-9.3,8.4c0,0.1,0,0.2,0,0.3c0,0.5-0.2,0.8-0.6,0.9
				c-0.3,0.3-0.8,0.3-1.2,0.2c-0.2,0.8-1.3,1.2-1.8,0.3c-1.3-2.3-2.1-5.1-4.8-6c-1.2-0.4-2.4-0.5-3.5-1c-3.5-1.5-6.4-3.9-10-5.2
				c-0.2-0.1-0.3-0.1-0.4-0.2c-0.2,0.1-0.4,0.2-0.7,0.1c0.5,0.1,1.4,2.8,1.6,3.4c0.6,1.2,1.3,2.3,2,3.4c1.5,2.1,3.3,4.1,4.6,6.4
				c0.1,0.2,0.1,0.4,0.1,0.6c0.3,0.7-0.5,1.7-1.4,1.3c-2.8-1.4-5.6-2.8-8.3-4.2c0.9,2.2,2.2,4.2,3.5,6.1c1.9,2.8,4.2,5.2,7.5,6.4
				c1.2,0.4,0.7,2.4-0.5,1.9c-2.6-0.9-4.8-2.5-6.6-4.5c0.5,2.6,1.2,5.3,2.8,7.2c0.9,1.1,2.1,1.9,2.9,3.1c0.7,0.9,1.2,2.3,2.2,2.9
				C17.9,140.8,16.9,142.5,15.8,141.8z"/>
			<polygon class="st1" points="179.4,270.5 178.1,267.2 174.7,267.2 176.1,270.5 			"/>
			<path class="st1" d="M101.7,264.2h1.7c0.1-0.3,0.3-0.5,0.6-0.6c1.5-0.5,2.5-1.7,3.1-3.2c0.3-0.8,0.5-1.6,0.5-2.5
				c0-0.6-0.1-1.3,0-1.8c0.7-2,2.9-0.7,4.3,0.1l0.6-2.2c-0.1,0-0.2,0.1-0.3,0.1c-1.9,0-3.7-0.2-5.6-0.9c-2.3-0.8-4.1-0.8-6.5-0.9
				c-0.9,0.4-1.7,0.8-2.5,1.3c-0.4,0.2-0.8,0.1-1.1-0.1c-1-0.1-1.9,0.1-2.8,0.5c0.9-0.1,1.7,0,2.4,0.1c1.3,0.2,1.3,2.2,0,2
				c-0.7-0.1-3.2-0.5-3,0.5c0.1,0.5,3.4,1.1,3.9,1.2c1.6,0.3,4.1,0.3,5.4,1.6C104.2,260.9,103.2,262.8,101.7,264.2z"/>
			<path class="st1" d="M97.3,251.6c0.5-0.3,1-0.5,1.5-0.7c-0.9-1.9-1.8-3.9-2.6-5.8c-0.4-1-0.8-2-1-3.1c0-0.2,0-0.9-0.2-0.9
				c-0.5-0.3-0.9,1.3-1,1.4c0,0.2-0.1,0.3-0.2,0.4c0.4,1.6,0.8,3.2,1.2,4.7c0.3,1.3-1.6,1.8-1.9,0.5c-0.7-2.9-1.7-5.9-1.9-8.9
				c0-0.4,0-0.9,0-1.3c0.4-0.8,0.2-1.1-0.6-0.9c-1-0.2-1.8,0.8-2.2,1.6c-1.1,2-0.7,4.5-0.4,6.7c0,0.2,0,0.3,0,0.5
				c0.1,0.2,0.3,0.4,0.5,0.5c0.9,0.8-0.3,2.1-1.2,1.5l0,0c-0.1,0.4-0.4,0.7-0.9,0.7c-2.2-0.2-4.3,0.5-6.4,1
				c-0.8,0.2-1.7,0.4-2.5,0.6c-0.5,0.1-1,0.2-1.5,0.4c0.4,0.6,0.8,1.2,1.2,1.8c1.4,0.8,5.3-0.8,6.9-1.2c1.5-0.4,3-0.6,4.6-0.7
				c1.3,0,1.3,2,0,2c-0.6,0-1.4,0.2-2.3,0.4c0,0.3-0.1,0.6-0.5,0.8c-2.3,1.2,1.2,1.4,2.2,1.2c1.5-0.4,2.8-1.4,4.1-2.1
				C93.7,251.7,95.3,251.3,97.3,251.6z"/>
			<path class="st1" d="M244.7,228.8c4-0.4,6.6-2.2,9.4-4.5c-2.8,0.2-5.7,0.3-8.3-0.5c-4.1-1.2-7-7.6-11.8-4.8
				c-1.1,0.7-2.1-1.1-1-1.7c0.1,0,0.1-0.1,0.2-0.1c0-0.1,0-0.2,0-0.3c0.5-3.3,0.5-6.2-0.7-9.3c-0.6-1.5-1.3-2.8-1.5-4.4
				c-0.3-1.8-0.1-3.5,0.5-5.2c-2,0.4-3.6,1.8-4.2,4c-0.6,2.1-0.9,4.1-2.1,6c0.3,1.1-1.3,2-1.8,0.9c-1.3-3.1-3-8.6-1.2-11.9
				c-2.3,1.4-2.8,5.4-3.4,7.8c-0.6,2.4-2,5.2-1.8,7.6c0.1,1.3-1.9,1.3-2,0c-0.2-1.8,0.5-3.3,1-5c0.7-2.1,1-4.3,1.7-6.4
				c0-0.1,0.1-0.2,0.1-0.3c-0.5,0.1-1-0.1-1.2-0.6c-4.2,0.6-6.1,12.6-6.5,15.7c-0.2,1.3-2.1,0.7-1.9-0.5c0.2-1.3,0.5-3.4,1-5.7
				c-6.2,4-6,16.9-5.7,23.1c0.2,4,1.3,8.5-0.5,12.1c4.1-0.1,8,2.8,12.3,3c2.4,0.1,19.6,0.3,19.1-3.5c-3.2-1-6.5-1.7-9.9-1.8
				c-1.2,0-1.3-1.8-0.2-2c0.1-0.1,0.3-0.2,0.5-0.2c5.6-0.6,11-1.2,16.3-2.7c-0.5-0.2-0.9-0.3-1.4-0.5c-0.1,0-0.2-0.1-0.2-0.2
				c-1-0.2-0.9-1.9,0.2-2c4-0.2,7.7-1.1,11.2-2.7c-1.9-0.2-3.9-0.8-5.6-1.1c-0.1,0-0.1,0-0.2-0.1c-0.1,0-0.3,0-0.4,0
				C243.4,230.9,243.4,228.9,244.7,228.8z"/>
			<path class="st1" d="M145.7,239.9l-1.2,1.9l-1.3-1.9c-0.9-1-7.5-1.6-14.7-1.4l-8.1,25.7H170L158.7,238
				C152.5,238.1,146.6,239,145.7,239.9z"/>
			<path class="st1" d="M111.4,258.2c-0.2-0.1-1.2-0.7-1.8-1c-0.1,1.8-0.2,3.4-1.1,5c-0.4,0.7-0.9,1.4-1.6,1.9h2.9L111.4,258.2z"/>
			<path class="st1" d="M176.9,264.2l-12.6-31.7c-8.9-0.4-17.1,0.3-18.1,1.5l-1.2,2.8l-1.5-2.7c-1.3-1.3-12.2-1.8-22-1.4l-8.6,31.6
				h4.5l9-28.6h1.1c4.2-0.2,13.3-0.3,17,1.7c3.2-1.8,10.7-2.2,15.4-2.2h1l12.6,29.3h3.4V264.2z"/>
			<polygon class="st1" points="118.6,270.5 172.9,270.5 171.5,267.2 119.6,267.2 			"/>
			<path class="st1" d="M43.3,50.8c0-0.1,0-0.3,0-0.4c-0.1,0.1-0.1,0.1-0.2,0.2C43.2,50.7,43.3,50.7,43.3,50.8z"/>
			<path class="st1" d="M36.8,96.3c3.4-1.5,8.4-2.8,9.6-6.8c-3.6,0.4-6.9,3.3-9.7,5.3c-2.7,1.9-5.3,3.7-8.4,4.7
				c-0.6,0.2-1-0.2-1.2-0.7C27,98.6,26.9,98.3,27,98c0.6-2.4-3.9-5.3-6.2-4.8c1.2,2.6,4.2,5.3,5.9,7.4c1.6,2,3.2,3.9,4.3,6.2
				c0.5,1.2-1.2,2.2-1.7,1c-0.4-0.9-1-1.8-1.5-2.7c-0.4,0.3-0.9,0.3-1.3-0.1c-1.5-1.4-3.4-2.1-5.4-1.9c3.6,2.8,6.5,6.3,7.7,10.6
				c0.9-1.3,2-2.4,3.3-3.4c-0.1-0.1-0.3-0.2-0.3-0.4c-1.1-2.7,1.6-5.8,3.4-7.5c1.9-1.8,8.9-4.4,9.1-7.6c-2,1.3-4.5,2.2-6.6,3.1
				C36.7,98.5,35.6,96.8,36.8,96.3z"/>
			<path class="st1" d="M35.5,51.6c0-0.5,0.2-0.9,0.7-1c0.2-0.1,0.5,0,0.7,0.1c0.8-0.8,1.5-1.7,2.4-2.4c1.8-1.4,3.5-2.6,2.5-5.2
				c-0.1-0.2-0.1-0.3-0.1-0.5c-0.3-0.4-0.3-1.1,0.3-1.4c1.7-1,2.1-2.2,2.4-4c0.2-1,0.3-1.9,0.5-2.9c-0.5-0.1-0.9-0.6-0.8-1.1
				c-0.1,0.1-0.2,0.2-0.4,0.3c-2.6,0.9-2.7,4.6-3.6,6.7c-0.5,1.2-2.4,0.7-1.9-0.5c0.1-0.4,0.3-0.7,0.4-1.1c-1.6,0-2.4,0.4-3,2.3
				c-0.4,1.3-0.6,3.2-0.7,4.5c-0.1,1.2-0.3,2.4-0.1,3.6C34.7,50,35,50.8,35.5,51.6z"/>
			<path class="st1" d="M53.7,28.4c2.4-1.2,4.3-3.3,5.9-5.6c-0.5,0.4-1.1,0.6-1.8,0.8c-1.3,0.2-1.8-1.7-0.5-1.9c1.8-0.3,3-2.7,4-4.1
				c0.6-0.8,1.6-1.9,2.3-3c-1.3,0.3-3.3,1-3.8,1.2c-1.1,0.3-2,0.9-3.1,1.2c-0.6,0.2-1.2,0.1-1.9,0.4c-1.3,0.5-2,1.1-2.8,2.3
				c-0.8,1.3-1.3,2.9-1.9,4.3c-0.4,0.9-1.6,0.8-1.9,0.2c-0.5-0.1-1-0.6-0.9-1.2c0.5-2.9-0.3-5.7-2.1-8c-3.9,4.1-0.6,12,1.1,16.6
				C48.5,30.3,51.3,29.7,53.7,28.4z"/>
			<path class="st1" d="M44.3,32.6L44.3,32.6c0-0.1-0.1-0.3-0.1-0.4C44.2,32.4,44.2,32.5,44.3,32.6C44.2,32.7,44.3,32.6,44.3,32.6z"
				/>
			<path class="st1" d="M261.5,100c1.7-2,4.7-4.8,5.9-7.4c-2.3-0.4-6.8,2.4-6.2,4.8c0.1,0.3,0,0.6-0.1,0.8c-0.1,0.5-0.6,0.9-1.2,0.7
				c-3.1-1.1-5.8-2.8-8.4-4.7c-2.8-2-6.1-4.9-9.7-5.3c1.3,3.9,6.2,5.3,9.6,6.8c1.2,0.5,0.2,2.2-1,1.7c-2.1-0.9-4.5-1.8-6.6-3.1
				c0.3,3.1,7.2,5.8,9.1,7.6c1.8,1.7,4.5,4.9,3.4,7.5c-0.1,0.2-0.2,0.3-0.3,0.4c1.3,1,2.4,2.1,3.3,3.4c1.2-4.3,4.1-7.7,7.7-10.6
				c-2-0.1-3.8,0.5-5.4,1.9c-0.4,0.4-0.9,0.3-1.3,0.1c-0.6,0.8-1.1,1.7-1.5,2.7c-0.5,1.2-2.3,0.1-1.7-1
				C258.3,103.9,259.9,101.9,261.5,100z"/>
			<path class="st1" d="M82.4,27.3c3,5.7,8.2,5,13.7,4.7c0.9-2.9,0.5-4.9,3.6-6.1c3.8-1.5,9.2-1.9,13.3-2c4.8-0.1,9.3,1.9,14,2.3
				c4,0.3,7.8,0.9,11.6,2.3c0.5-0.6,0.9-1.2,1.3-1.8l1.1-1.6l1.3,1.5c0.8,1,1.7,2,2.6,2.9c10.5,1.3,22.2,2.8,32.6,0.8
				c4.7-0.9,10.3-1.3,14.8-2.8c4.9-1.6,9.4-4.2,13.7-7c0.1-3.4,0.2-6.8,0.4-10.2c0.1-2.6,0.7-4.7-1.7-6.7c-1.6-1.3-4.1-1.9-6.3-1.6
				c0.5,0.7,1.3,1.2,1.9,1.7c0.9,0.8,1.6,1.7,1.6,2.9c0,1.1-1.4,1.2-1.8,0.5c-2.2,3.1-8.1,3.1-11.4,3.8c-6.4,1.2-12.8,2.8-19.3,3
				c-7,0.3-14.1-1.1-21.1-2c-7.6-1-15.2-2-22.8-3C125.4,9,125.2,9,125,9c-3-0.2-5.8-1.5-8.8-1.8c-3.5-0.4-7.2-0.3-10.8-0.2
				c-4.2,0.1-8.5,0.5-12.7,1.2c-3.6,0.6-8.7,0.9-11.5,3.5c-0.1,0.1-0.2,0.1-0.3,0.2c-0.8,2.2-0.3,5.5-0.2,7.7
				C80.9,22.3,81.1,24.8,82.4,27.3z"/>
			<path class="st1" d="M231.1,20.9c1.3,0.2,0.7,2.1-0.5,1.9c-0.7-0.1-1.3-0.4-1.8-0.7c1.6,2.2,3.5,4.3,5.8,5.6
				c2.4,1.3,5.2,1.9,7.6,3.1c1.7-4.6,5-12.5,1.1-16.6c-1.8,2.2-2.6,5.1-2.1,8c0.1,0.7-0.4,1.1-0.9,1.2c-0.3,0.6-1.5,0.7-1.9-0.2
				c-0.7-1.6-1.2-3.3-2.2-4.7c-1.3-1.9-2.6-1.6-4.5-2.2c-1.3-0.4-2.3-1-3.6-1.3c-0.7-0.1-2.3-0.9-3.4-1.2c0.7,1.1,1.8,2.3,2.4,3.2
				C228.1,18.2,229.3,20.6,231.1,20.9z"/>
			<path class="st1" d="M23.3,77.8c0.7,0.4,1.5,0.8,2.2,1.2c0.3,0.2,0.4,0.4,0.5,0.6c0.2,0.1,0.5,0.2,0.7,0.3
				c1.2,0.4,0.7,2.3-0.5,1.9c-1.7-0.6-3-1.4-4.2-2.4c-1.3-0.7-2.7-1.4-4.1-2c2.7,6.8,6.1,15.2,14.6,14.5c0.3,0,0.5,0.1,0.6,0.2
				c3.8-1.4,7.4-3.4,10.4-6.2c2.9-2.6,7.1-6.9,7-11.1c-1.5,0.7-2.4,1.8-3.4,3.2c-0.8,1.2-1.9,1.9-3.4,1.6c-1-0.2-0.9-1.5-0.1-1.8
				c1-1.4,1.6-3,2.9-4.1c1.5-1.3,2.5-2,2.9-4c0.1-0.7,0.1-1.5,0.1-2.2c-0.9,1-1.8,1.8-3.2,2.4c-1.8,0.8-2.9,2.5-4.7,3.1
				c-0.2,0-0.3,0.1-0.4,0c-0.3,0.2-0.7,0.4-1.1,0.5c-1.2,0.5-1.7-1.5-0.5-1.9c3.1-1.2,4.4-4.3,6.3-6.8c1.2-1.5,2.7-2.8,3.3-4.7
				c0.2-0.9,0.3-1.7,0.3-2.6c-0.8,0.7-1.6,1.3-2.5,1.9c-1.6,1.1-3,1.8-4.1,3.5c-0.2,0.2-0.4,0.3-0.6,0.4c-0.7,0.7-2.1-0.2-1.5-1.3
				c1.7-3.1,2.5-6.3,2.7-9.6c-0.1,0.1-0.2,0.1-0.4,0.2c-3.1,0.5-4.9,4-7.6,5.3l0,0c1,0.8,0,2.5-1,1.7c-1.7-1.3-2.4-3-3.4-4.8
				c-0.5-0.9-1.1-1.6-1.6-2.4c-0.1,3.8,0.9,7.4,2.9,10.7c0.3,0.5,0.1,0.9-0.2,1.2c0.2,0.7-0.9,1.5-1.7,0.9c-2.1-1.6-3.1-3.9-4.6-6.1
				c-0.8-1.1-1.7-2.1-2.5-3.2c-0.1,2.2-0.1,4.3,0.1,6.4c0.4,3.6,3,6.4,5,9.2c0.8,1-1,2-1.7,1c-0.2-0.2-0.3-0.4-0.5-0.6
				c-0.1,0-0.3,0-0.5,0c-3.4-0.8-6.3-2.7-8.5-5.4c0.7,2.2,2.3,4.2,3.3,6.4C21.2,74.8,22,76.5,23.3,77.8z"/>
			<path class="st1" d="M68,157.4v8.9c0.2,1.3,2.7,14.4,12.4,27.4c13.7,18.2,34.5,27.4,61.9,27.5c0.1,0,0.3,0,0.4,0
				c27.2,0,48.3-9.2,62.6-27.4c10.2-13,16.1-25.1,16.4-26.5l-0.4-127.8c-4.2,1.5-16.5,9.5-28.7,10.1c-20.5,0.9-37.8-6.1-50.1-20.2
				c-10.2,13.7-26.5,20.9-47.3,21c-12.7,0-23.4-2.5-27.7-3.7l0.5,97.4C67.7,146.9,67.5,151.6,68,157.4z M156.3,165.6
				c0-2.9-0.4-5.7-1.2-8.3l0.8-1.7c1,3,1.5,6.1,1.5,9.4c0,11.8-6.6,21.9-15.9,26.2C150.2,186.7,156.3,176.9,156.3,165.6z
				 M159.2,203.9c13.6-7.1,23-22,23-39.2c0-7.6-1.8-14.7-5.1-20.9l0.6-1.5l0.9-2.1c4.2,7.1,6.6,15.5,6.6,24.5
				c0,11.1-3.7,21.3-9.8,29.3l-2.2-1l-0.4,0.9l-0.3-0.1l-0.4-0.2l-0.6,1.3l-0.1,0.2l-0.1,0.4c-0.1,0.4-0.3,1.9-0.4,3.8
				c-3.2,3.1-6.8,5.6-10.7,7.6c-5.7,2.9-12,4.5-18.7,4.5c-12.8,0-23.8-5.7-31.1-15.1c0.1-0.6,0.1-1.2,0.2-1.7c0-0.3,0.1-0.5,0.1-0.8
				v-2.5c6.7,10.5,17.7,17,30.8,17C147.8,208.3,153.8,206.7,159.2,203.9z M101.8,159.8c0.5-5.6,1.7-10.9,3.7-15.7
				c0.5-1.2,1.1-2.4,1.6-3.6l1.2,2.7c-0.2,0.5-0.5,0.9-0.7,1.4l0.4,0.9c0.3-0.4,0.6-0.7,0.9-1l0.2,0.5c2.1-2.7,4.7-5.1,7.5-6.9
				l1.3,2.7l22.1,47.8l-0.7,1.5l-22.6-48.7c-2.9,1.9-5.3,4.4-7.3,7.3l21,45.4c0.4,0,0.9,0,1.3,0l0.4,0.9l-1.6-0.5l-0.2-0.4h-0.1
				c-0.3,0-0.7,0-1,0l-0.4-0.1c-0.1,0-0.7-0.3-1.7-0.7c-3.8-1.9-12.5-8.3-12.2-25.3l-0.2-1.9h0.6l-6.8-14.7c-1.2,2.4-2.2,5-2.7,7.8
				c1.1-0.1,1.9-0.2,1.9-0.2l-2,1l-0.5,0.3c-0.7,4.1-0.7,8.1-0.3,11.9c0.2,1.6,0.5,3.2,0.8,4.7c0.5,2.3,1.2,4.6,2,6.7
				c-0.3-0.5-0.6-1-1-1.5c0.8,3.1,1.8,5.6,2.6,7.5h-1.9v0.5l0,0h-1.1v0.1v0.4c-2.1-3.9-3.7-8.3-4.7-13l1-0.1c0-0.1-0.1-0.3-0.1-0.4
				c-0.4-2.3-0.7-4.7-0.9-7.3c-0.1-1.5-0.2-3.1-0.2-4.7c0-1.1,0-2.1,0.1-3.2l-4.9,2.4C95.3,162,98.5,160.6,101.8,159.8z"/>
			<path class="st1" d="M125,189.3l-7.9-17.1C117.8,181.7,121.8,186.8,125,189.3z"/>
		</g>
		<g>
			<path class="st2" d="M16.2,150.6c2.1,1.7,4.5,3.3,7,4.4c2.3,1.1,7,1,8.5,3.2c0,0.1,0,0.2-0.1,0.3c-0.2,1.3,1.8,1.3,2,0
				c0.7-5.6,7.6-6.6,10.8-10.2c2.3-2.6,3.4-6.5,4.7-9.6c1.1-2.7,7.6-13.8,3.3-15.6l0,0c0.9-2,1.7-3.9,1.2-6.1c-0.1-0.6-1-1-1.5-0.6
				c-0.2,0.2-0.5,0.4-0.8,0.6c0-0.1,0.1-0.2,0.1-0.3c1.8-4.2,2.4-8,1.4-12.4c0.3-0.5,0-1-0.4-1.3c-0.6-0.7-2.1-0.2-1.7,0.9
				c0,0,0,0,0,0.1c-1.1,1.8-2.2,3.6-3.4,5.3c-0.7,0.9-1.5,2.1-2.3,3.1c1-3.6,1.4-7.2,1.7-11.1c0.1-0.7-0.5-1-1.1-0.9
				c-0.3,0-0.5,0-0.8,0.3c-3.2,3.7-7.1,6.1-11.1,8.9c-0.7-2.4,3-5.6,4.7-6.8c1.5-1.1,3.3-1.8,4.8-3c1.9-1.4,3.8-3.5,3.2-6
				c0-0.1,0-0.1-0.1-0.1c1.1-1.1,2-2.4,2.3-4c1-0.2,0.9-1.8-0.3-2c-1.5-0.2-2.9,0-4.3,0.4c0.9-0.8,1.8-1.6,2.6-2.5
				c3.2-3.4,6.8-7.5,5.7-12.5c-0.2-0.8-1.1-0.9-1.6-0.4c-0.1,0-0.1,0-0.2,0.1c1.2-2.1,1.1-4.7,0.9-7.1c-0.1-0.8-0.9-1.1-1.5-0.9
				c-0.3-0.1-0.6,0-0.9,0.3c-0.5,0.6-1,1.3-1.5,1.8c-0.4,0.4-0.9,0.7-1.4,0.9c0.6-0.8,1.1-1.6,1.8-2.4c2.8-3.4,3.6-5.6,3.3-10.1
				c-0.1-1.1-1.6-1.3-1.9-0.4c-1.6,1.3-3.1,2.6-4.9,3.7c-0.1,0.1-0.2,0.1-0.3,0.2c1.1-3.4,1.5-7,1-10.6c-0.1-0.9-1.2-1.2-1.8-0.7
				c-0.2,0.1-0.3,0.2-0.5,0.4c-0.9,1.7-2.7,2.6-4.1,3.8c0.1-0.1,0.2-0.2,0.3-0.3c0.9-1,1.9-1.7,3-2.6c1.8-1.6,2.4-3.9,1.6-6.1
				c0,0,0-0.1-0.1-0.1c1-0.7,1.9-1.6,2.3-2.9c0.6-2,0.8-4.2,1.1-6.2c3.1-1.8,7-2.2,9.9-4.5c3-2.5,5.3-6.2,7.3-9.5
				c0.4-0.6,0-1.2-0.6-1.4c1-1.3,2-2.7,2.3-4c0.1-0.4-0.1-0.9-0.5-1.1c-1.4-0.8-2.7-0.1-4.1,0.4c-2,0.8-4.6,1.6-6.7,2
				c-3.1,0.7-4.5,2.9-5.6,5.5c-0.1-2.6-1.1-5-2.8-7.1c-0.3-0.3-0.6-0.4-0.8-0.3c-0.3-0.4-1-0.6-1.5-0.1c-5.3,4.5-1.9,13.3,0.1,18.8
				c-0.2-0.3-0.6-0.6-1.1-0.4c-2.5,0.8-3.3,2.9-4,5.1c-1.3-0.1-2.9-0.3-4,0.5c-1.5,1.2-1.7,4-2,5.6c-0.4,2.3-0.8,4.9-0.4,7.2
				c0.3,2,1.5,3.4,2.6,5c0.1,0.1,0.2,0.2,0.3,0.3c-0.5,0.4-1,0.8-1.6,1l0,0c-0.4-0.7-0.7-1.4-1.1-2c-0.6-1.1-2.6-3-2.3-4.2
				c0.2-1-1-1.5-1.6-1.1c-0.5-0.3-1.3-0.2-1.4,0.5c-0.5,3.5-0.2,7,0.9,10.2c-0.3-0.5-0.7-1.1-1-1.6c-1.3-1.9-3.2-3.4-3.8-5.6
				c-0.2-0.8-1.1-0.9-1.6-0.5c-0.4,0.1-0.8,0.4-0.8,0.9c0,3.5-0.5,7.4,0.2,10.8c0.4,2,1.5,3.8,2.7,5.5c-3.1-1.2-5.5-3.5-7-6.6
				c-0.4-0.8-1.3-0.6-1.6,0c-0.3,0.1-0.6,0.4-0.7,0.9c-0.4,4.2,2.8,8.2,4.4,11.9c0.1,0.2,0.1,0.3,0.2,0.5c-0.9-0.4-1.8-0.9-2.7-1.3
				c-0.2-0.3-0.5-0.4-0.9-0.4c-1.1-0.3-1.9,1.3-0.8,1.8c0.1,0,0.1,0.1,0.2,0.1c1.8,4.3,3.3,10,6.5,13.3c2.3,2.4,6.4,4.4,9.9,4.4
				c0.2,0.4,0.6,0.6,1.1,0.4c0.8-0.3,1.5-0.5,2.3-0.8c-1.9,1.4-3.9,2.8-5.9,3.7c-0.2-1.7-1.5-3-3-4c-2-1.4-4.2-2.4-6.7-1.4
				c-0.1,0-0.2,0.1-0.2,0.2c-0.4,0.2-0.7,0.6-0.6,1.1c0.8,2.6,3.2,4.7,4.8,6.7c0.6,0.8,1.3,1.5,1.9,2.3c-1.9-0.9-4-1-6.2-0.5
				c-0.6,0.2-0.8,0.7-0.7,1.2c-0.2,0.4-0.1,0.9,0.4,1.2c4.3,3.1,7.9,7.2,8.5,12.6c0,0.1-0.1,0.2-0.1,0.3c-0.8-1.6-1.6-3.8-2.8-5.1
				c-1.2-1.2-2.4-1.1-4-1.5c-4.5-1.1-8-4.5-12.4-6c-0.3-0.1-0.5-0.1-0.7,0c-0.1-0.1-0.2-0.2-0.4-0.2c-1-0.2-1.8-0.1-2.3,0.9
				c-0.7,1.4,0.4,2.6,1,3.8c1.6,3.3,3.8,6.1,5.9,9.1c-2.4-1.2-4.9-2.4-7.3-3.7c-0.5-0.9-2-0.4-1.8,0.8c0.6,3.2,2.5,6.4,4.5,9.1
				c-0.2,0.2-0.3,0.5-0.3,0.9c0.5,3.3,1.3,7.4,3.5,10.1c0,0,0,0,0.1,0.1c-0.9-0.3-1.8-0.5-2.8-0.6c-0.5,0-0.8,0.3-0.9,0.6
				c-0.5,0.2-1,0.8-0.7,1.5C8.2,142.2,11.6,146.9,16.2,150.6z M43.3,50.4c0,0.1,0,0.3,0,0.4c-0.1-0.1-0.1-0.2-0.2-0.2
				C43.2,50.5,43.3,50.5,43.3,50.4z M45,14.9c1.8,2.2,2.6,5.1,2.1,8C47,23.6,47.5,24,48,24.1c0.3,0.6,1.5,0.7,1.9-0.2
				c0.6-1.4,1.1-3,1.9-4.3c0.8-1.2,1.5-1.8,2.8-2.3c0.7-0.2,1.3-0.1,1.9-0.4c1.1-0.4,2-1,3.1-1.2c0.5-0.1,2.5-0.8,3.8-1.2
				c-0.7,1.1-1.7,2.2-2.3,3c-0.9,1.3-2.2,3.8-4,4.1c-1.3,0.2-0.7,2.1,0.5,1.9c0.7-0.1,1.3-0.4,1.8-0.8c-1.6,2.3-3.5,4.4-5.9,5.6
				c-2.4,1.3-5.2,1.8-7.6,3.1C44.4,26.8,41.1,19,45,14.9z M44.4,32.6C44.3,32.6,44.3,32.6,44.4,32.6c-0.1,0.1-0.1,0.1-0.2,0.1
				c0.1-0.2,0.1-0.3,0-0.5C44.3,32.3,44.3,32.5,44.4,32.6z M34.7,45.3c0.1-1.3,0.3-3.2,0.7-4.5c0.6-1.9,1.4-2.3,3-2.3
				c-0.1,0.4-0.2,0.7-0.4,1.1c-0.5,1.2,1.5,1.7,1.9,0.5c0.9-2.2,0.9-5.9,3.6-6.7c0.2-0.1,0.3-0.2,0.4-0.3c-0.1,0.5,0.3,1,0.8,1.1
				c-0.2,1-0.3,1.9-0.5,2.9c-0.3,1.8-0.7,2.9-2.4,4c-0.6,0.4-0.6,1-0.3,1.4c0,0.1,0,0.3,0.1,0.5c1,2.6-0.7,3.8-2.5,5.2
				c-0.9,0.7-1.6,1.6-2.4,2.4c-0.2-0.1-0.5-0.1-0.7-0.1c-0.5,0.1-0.7,0.6-0.7,1c-0.4-0.8-0.8-1.6-0.9-2.7
				C34.5,47.7,34.6,46.4,34.7,45.3z M33.1,92c-0.2-0.1-0.4-0.2-0.6-0.2c-8.5,0.7-11.9-7.7-14.6-14.5c1.4,0.7,2.7,1.3,4.1,2
				c1.1,1.1,2.5,1.9,4.2,2.4c1.2,0.4,1.7-1.5,0.5-1.9c-0.2-0.1-0.5-0.2-0.7-0.3c0-0.2-0.2-0.5-0.5-0.6c-0.7-0.4-1.5-0.8-2.2-1.2
				c-1.3-1.3-2-3-2.9-5.1c-1-2.2-2.6-4.2-3.3-6.4c2.1,2.7,5.1,4.6,8.5,5.4c0.2,0,0.3,0,0.5,0c0.2,0.2,0.3,0.4,0.5,0.6
				c0.7,1,2.5,0,1.7-1c-2-2.8-4.7-5.6-5-9.2c-0.2-2.1-0.1-4.3-0.1-6.4c0.8,1.1,1.8,2.1,2.5,3.2c1.5,2.1,2.5,4.4,4.6,6.1
				c0.8,0.6,1.9-0.2,1.7-0.9c0.3-0.3,0.4-0.7,0.2-1.2c-2-3.3-3-6.9-2.9-10.7c0.5,0.8,1.1,1.5,1.6,2.4c1,1.8,1.8,3.5,3.4,4.8
				c1,0.8,2-1,1-1.7l0,0c2.7-1.4,4.5-4.8,7.6-5.3c0.2,0,0.3-0.1,0.4-0.2c-0.2,3.3-1,6.6-2.7,9.6c-0.6,1,0.8,1.9,1.5,1.3
				c0.2-0.1,0.4-0.2,0.6-0.4c1.1-1.6,2.6-2.3,4.1-3.5c0.9-0.6,1.7-1.3,2.5-1.9c0,0.9,0,1.8-0.3,2.6c-0.5,2-2.1,3.2-3.3,4.7
				c-1.9,2.5-3.1,5.6-6.3,6.8c-1.2,0.5-0.7,2.4,0.5,1.9c0.4-0.2,0.8-0.3,1.1-0.5c0.1,0,0.3,0,0.4,0c1.9-0.6,3-2.3,4.7-3.1
				c1.4-0.6,2.3-1.4,3.2-2.4c0,0.7,0,1.5-0.1,2.2c-0.4,2.1-1.4,2.7-2.9,4c-1.3,1.1-1.9,2.7-2.9,4.1c-0.8,0.4-0.9,1.6,0.1,1.8
				c1.5,0.3,2.6-0.4,3.4-1.6c1-1.4,1.9-2.5,3.4-3.2c0.1,4.2-4.2,8.4-7,11.1C40.4,88.6,36.9,90.6,33.1,92z M21.2,103.3
				c2-0.1,3.8,0.5,5.4,1.9c0.4,0.4,0.9,0.3,1.3,0.1c0.6,0.8,1.1,1.7,1.5,2.7c0.5,1.2,2.3,0.1,1.7-1c-1.1-2.3-2.7-4.3-4.3-6.2
				c-1.7-2-4.7-4.8-5.9-7.4c2.3-0.4,6.8,2.4,6.2,4.8c-0.1,0.3,0,0.6,0.1,0.8c0.1,0.5,0.6,0.9,1.2,0.7c3.1-1.1,5.8-2.8,8.4-4.7
				c2.8-2.1,6.1-4.9,9.7-5.3c-1.3,3.9-6.2,5.3-9.6,6.8c-1.2,0.5-0.2,2.2,1,1.7c2.1-0.9,4.5-1.8,6.6-3.1c-0.3,3.2-7.2,5.8-9.1,7.6
				c-1.8,1.7-4.5,4.9-3.4,7.5c0.1,0.2,0.2,0.3,0.3,0.4c-1.3,1-2.4,2.1-3.3,3.4C27.6,109.6,24.7,106.1,21.2,103.3z M12.1,139
				c0.8,0.7,1.3,1.4,2.3,1.4c0.4,0.5,0.8,1,1.4,1.4c1.1,0.7,2.1-1,1-1.7c-1-0.6-1.5-2-2.2-2.9c-0.9-1.1-2-2-2.9-3.1
				c-1.5-1.9-2.3-4.6-2.8-7.2c1.8,2.1,4,3.6,6.6,4.5c1.2,0.4,1.7-1.5,0.5-1.9c-3.3-1.2-5.6-3.5-7.5-6.4c-1.3-1.9-2.6-3.9-3.5-6.1
				c2.8,1.4,5.6,2.8,8.3,4.2c0.9,0.5,1.7-0.5,1.4-1.3c0-0.2,0-0.4-0.1-0.6c-1.3-2.3-3.1-4.3-4.6-6.4c-0.8-1.1-1.5-2.2-2-3.4
				c-0.3-0.6-1.2-3.3-1.6-3.4c0.3,0.1,0.5,0,0.7-0.1c0.1,0.1,0.2,0.2,0.4,0.2c3.6,1.2,6.5,3.7,10,5.2c1.1,0.5,2.3,0.6,3.5,1
				c2.7,0.9,3.5,3.7,4.8,6c0.5,0.9,1.6,0.5,1.8-0.3c0.4,0.2,0.9,0.2,1.2-0.2c0.3-0.1,0.6-0.4,0.6-0.9c0-0.1,0-0.2,0-0.3
				c1.8-4.1,5.8-6,9.3-8.4c2.1-1.4,4-3,5.7-4.7c-0.4,3.8-0.9,7.5-2.5,11.1c0,0,0,0,0,0.1c-0.8,0.7,0.2,2.1,1.2,1.6
				c2.1-1.2,3.6-3.5,5.1-5.4c1.1-1.2,2.1-2.7,3.1-4.2c0.2,2.7-0.2,5.3-1.2,7.9c-1,2.5-2.3,7.8-5.2,9c-1.2,0.5-0.7,2.4,0.5,1.9
				c2.7-1.1,3.9-3.6,4.9-6.2c0.1,0,0.2,0,0.2,0c0.4-0.2,0.8-0.3,1.2-0.5c-0.2,2-1.5,4.1-2.4,5.8c-0.9,1.8-1.8,3.5-2.8,5.2
				c-0.6,1.1,1.1,2.1,1.7,1c1.2-2,2.2-4,3.2-6.1c0.1,0.1,0.2,0.1,0.3,0.2c0.7,0.3-3.3,9.7-3.7,10.7c-1.6,4-2.8,8.6-5.9,11.6
				c-3.3,3.2-8,4.6-9.9,8.6c-0.6-0.5-1.4-0.9-2.4-1.2c-3.4-1-6.2-1.5-9.4-3.5c-5.5-3.5-9.7-8.5-12.6-14.3
				C9.5,137.2,10.9,137.9,12.1,139z"/>
			<path class="st2" d="M41.4,207.9c0.7,0.1,1.3,0.3,1.8,0.6c-0.2,0-0.4,0-0.5,0.1c-0.1,0-0.2,0-0.2,0.1c-3-0.1-7.7,0.9-7.8,4.3
				c0,0.1,0,0.1,0,0.2c-0.2,0.3-0.2,0.7,0.2,1.1c1.6,1.4,3.8,1.2,5.8,1c1.1-0.1,2.2-0.3,3.3-0.5c2.6-0.4,4.3,0,6.6,1
				c0.5,0.2,0.8,0,1-0.3c0.4-0.1,0.6-0.4,0.6-0.9c-0.1-2.4-1.4-4.3-2.9-5.9c-0.7-5-0.9-9.6,2.5-13.7c0.6-0.7,0-1.6-0.6-1.7
				c0.2-0.4,0.2-1-0.3-1.2c0.7-0.4,1.5-0.8,2.3-1.2c2.3-1,3.6-2.1,5.2-4c2.9-3.6,6.3-7.8,7.3-12.4c1.7,5.5,5.1,13.5,11.1,21.6
				c9.8,13.1,28.9,28.7,64.4,28.8c0.1,0,0.3,0,0.4,0c35.2,0,54.8-15.6,65.1-28.6c11.2-14.2,14.9-27.6,15-28.2l-0.9-127.5l-2.1,0.9
				c-0.4,0.2-42.8,17.8-71.5-9.7c20.5,2.3,41.6,2,59.4-9.3c0.6,0.2,1.3-0.1,1.4-0.9c0.1-4,0.3-8,0.4-12c0.1-2.1,0.6-4.5-0.8-6.3
				c-2.6-3.2-8.5-4.2-11.9-2.4c-1.1,0.6-0.2,2.1,0.8,1.8c0.4,0.7,0.9,1.3,1.6,1.8c0.2,0.2,0.5,0.4,0.8,0.6c0,0.1-0.1,0.1-0.1,0.2
				c-0.7,2.4-6.8,2.9-8.7,3.2c-3.2,0.6-6.3,1.2-9.5,1.8c-6.1,1.2-12.1,1.8-18.3,1.3c-12.5-1.1-25-3.2-37.4-4.8c-0.2,0-0.4,0-0.5,0.1
				c-3.9-0.4-7.5-1.8-11.5-1.9c-4.3-0.2-8.7-0.1-13,0.3C93.8,5.8,84.7,5.9,80,10.2c-0.3,0-0.5,0.2-0.7,0.5c-1.2,2.7-0.6,6-0.6,8.9
				C78.8,23,79.3,26,81,29c3.6,6.3,9.3,5.4,15.8,5c0.6,0,0.9-0.5,0.9-0.9c0-0.1,0.1-0.1,0.1-0.2c0.6-1.7,0.7-3.8,2.3-4.9
				c1.2-0.8,3.7-0.8,5.2-1.1c4.8-0.8,9-1.1,13.7,0.1c6,1.5,12.2,1.5,18.1,3.3C113.3,59,65.8,43.9,65.3,43.7l-2-0.6L63.9,167v0.2
				c0,0.2,0.3,1.6,0.9,3.9h-0.1c-1.9,0.3-4.7,3.2-7,5c0-0.1,0.1-0.1,0.1-0.2c1-1.6,1.5-3.4,1.7-5.3c0.1-1.1-1.2-1.2-1.8-0.5
				c-0.2,0-0.4,0.1-0.5,0.2c-1.9,1.5-4,2.5-6.2,3.3c4.1-6.1,6.1-12.1,3.7-19.8c-0.3-1-1.8-0.8-2,0.1c-0.1,0.1-0.1,0.1-0.2,0.2
				c-1.3,2.5-2.5,5.4-4.4,7.5c-1.4,1.5-3.2,2.3-5.1,2.9c0.3-0.4,0.6-0.9,0.9-1.3c0.5-1,1-2.7,0.6-3.8c-0.2-0.5-0.5-0.9-0.9-1.1l0,0
				c0-0.1,0.1-0.1,0.1-0.2c0.3-0.1,0.6-0.4,0.7-0.9c0.5-4.9-5.5-2.9-7.8-1c-1.8,1.5-3.4,3.6-4.6,5.6c-1.1,1.8-1.3,3.6-1.3,5.5
				c-3.3-2.8-6.7-6.7-11.4-6c-0.1,0-0.2,0.1-0.3,0.1c-0.5,0-1,0.3-1,1c0.1,2.4,2.4,3.8,4.1,5.2c0.5,0.4,0.9,0.8,1.4,1.1
				c-1.6,0-3.2,0.4-4.6,1.3c-2.3,1.5-3,4-3.6,6.6c-0.1,0.3,0,0.5,0.1,0.7c0,0.5,0.3,1.1,1,1.1c4.9,0.2,8.8-5.2,13.4-0.4
				c1.2,1.3,2,2.9,3.2,4.2c0.3,0.3,0.7,0.6,1,0.9c-2.2-0.4-4.4-0.7-6.3-0.2c-1.3,0.3-2.3,1-3.5,1.7c-2.9,1.6-5.8,2.4-9.1,2.7
				c0,0,0,0-0.1,0c-1.1-0.6-2.1,1.1-1,1.7c1.2,0.6,2.3,1.2,3.5,1.8c-2.5-0.1-5.1,0.1-7.2,1c-0.2,0.1-0.4,0.2-0.5,0.4
				c-0.7,0.1-1.3,1-0.6,1.6c3.8,3.3,9.8,4.9,14.5,6c6.2,1.4,12.7-0.7,18.7,1.3c0.3,0.1,0.6,0.1,0.8-0.1c0.1,0,0.3,0,0.4-0.1
				c-0.4,0.8-0.9,1.6-1.4,2.3c0,0.1-0.1,0.1-0.1,0.2c-4.1-0.4-11.7-3.6-13.5,1.4c0,0.1,0,0.2,0,0.3c-0.2,0.6,0,1.4,0.9,1.5
				c2.9,0.2,5.6,1.3,8.5,1.5C39.2,208,40.4,207.8,41.4,207.9z M127.1,26.2c-4.7-0.4-9.2-2.4-14-2.3c-4.1,0.1-9.5,0.5-13.3,2
				c-3.1,1.2-2.7,3.1-3.6,6.1c-5.5,0.4-10.6,1-13.7-4.7c-1.3-2.5-1.6-5-1.7-7.7c-0.1-2.2-0.6-5.6,0.2-7.7c0.1,0,0.2-0.1,0.3-0.2
				c2.8-2.6,7.9-2.9,11.5-3.5c4.2-0.7,8.4-1.1,12.7-1.2c3.6-0.1,7.2-0.2,10.8,0.2c3,0.3,5.8,1.6,8.8,1.8c0.2,0,0.3,0,0.5-0.1
				c7.6,1,15.2,2,22.8,3c7,0.9,14,2.2,21.1,2c6.5-0.3,12.9-1.8,19.3-3c3.3-0.6,9.2-0.7,11.4-3.8c0.5,0.8,1.9,0.6,1.8-0.5
				c0-1.2-0.7-2.1-1.6-2.9c-0.6-0.5-1.4-1-1.9-1.7c2.2-0.4,4.8,0.2,6.3,1.6c2.4,2.1,1.8,4.1,1.7,6.7c-0.1,3.4-0.2,6.8-0.4,10.2
				c-4.3,2.8-8.9,5.3-13.7,7c-4.5,1.5-10,1.9-14.8,2.8c-10.4,2-22.1,0.5-32.6-0.8c-0.9-0.9-1.7-1.9-2.6-2.9l-1.3-1.5l-1.1,1.6
				c-0.4,0.6-0.9,1.2-1.3,1.8C134.9,27.1,131.1,26.5,127.1,26.2z M94.1,50.9c20.8-0.1,37.1-7.3,47.3-21C153.8,44,171,51,191.5,50.1
				c12.2-0.5,22.2-3.7,26.4-5.2l1,122.4c-0.3,1.4-4.4,14.1-14.6,27c-14.4,18.2-35.4,27.4-62.6,27.4c-0.1,0-0.3,0-0.4,0
				c-27.4-0.1-48.2-9.3-61.9-27.5c-9.8-13-12.2-26.1-12.4-27.4L66.4,47.2C70.7,48.4,81.4,50.9,94.1,50.9z M29.5,198.4
				c-5.2-0.3-12.8-2-17.4-5.2c3.3-0.9,7.4-0.4,10.7-0.4c0.1,0,0.2,0,0.2,0c1.1,0.2,1.5-1.5,0.4-1.9c-1.7-0.6-3.4-1.3-5.1-2.1
				c1.9-0.4,3.8-1,5.6-1.8c2.3-1.1,3.5-2.3,6.3-2.3c2.3,0,4.8,0.6,7.1,1c0.2,0.3,0.5,0.6,0.7,0.9c0.6,1.1,2.4,0.1,1.7-1
				c-0.2-0.4-0.5-0.8-0.8-1.1c0-0.3-0.2-0.5-0.6-0.6c-0.9-0.8-1.9-1.5-3-2.4c-2-1.8-3-4.4-5.2-6c-1.5-1.1-3.4-1.8-5.2-1.7
				c-2.7,0.1-4.8,2.2-7.4,2.6c0.4-1.7,1-3.4,2.5-4.5s3.4-1.3,5.2-0.8c0.4,0.1,0.7,0,0.9-0.2c1.2,1,2.4,2,3.6,3
				c1,0.8,2.4-0.6,1.4-1.4c-1.8-1.5-3.7-3.1-5.5-4.6c-1.1-1-4.3-2.9-5.2-4.6c3.5-0.2,6.7,3.6,9.2,5.7c0.4,0.3,0.9,0.3,1.2,0.1v0.1
				c0.1,1.3,2.1,1.3,2,0c-0.2-2.9,0.2-5.2,1.9-7.6c0.8-1.1,1.6-2.3,2.7-3.3c0.6-0.6,1.2-1.1,1.9-1.5c1-0.8,1.9-0.7,2.8,0.2
				c-1.6,1.8-3.6,2.6-4.8,4.8c-1.4,2.7-2.6,5.6-3.9,8.3c-0.5,1.2,1.2,2.2,1.7,1c1.2-2.6,2.4-5.2,3.6-7.7c0.3-0.6,0.6-1.1,1-1.5
				c0.3,0,0.5-0.2,0.7-0.5c0.1-0.2,0.2-0.4,0.4-0.6c0.2-0.1,0.3-0.3,0.5-0.4c0.1-0.1,0.3-0.1,0.4-0.2c1-0.3,0.9,0.2,0.7,1
				c-0.3,1.4-1.2,2.6-2.5,3.4c-0.4,0.2-0.5,0.6-0.5,0.9c-1,0.5-0.4,2.1,0.7,1.8c3.1-0.8,6.2-1.5,8.7-3.7c1.9-1.8,3.2-4.3,4.4-6.7
				c1.3,6.8-1.4,12.2-5.5,17.8c-0.1,0-0.1,0-0.2,0.1c-1.2,0.4-0.7,2.3,0.5,1.9c3.1-1,6.1-2,8.8-3.7c-0.2,0.5-0.4,1.1-0.7,1.6
				c-0.5,1-1.5,2.8-2.7,3c-0.6,0.1-0.8,0.6-0.7,1c0,0.4,0.2,0.8,0.7,1c5.2,2.2,6.5-4.3,10.2-6.1c-0.6,3.7-3.1,6.6-5.2,9.6
				c-2.4,3.2-4.5,4.8-8,6.6c-3.9,2-6.6,5.1-8,9.2C38.3,197.6,34,198.6,29.5,198.4z M43,205.3c0.6,0,0.9-0.4,1-0.9
				c1.2-1.4,1.6-3,2.4-4.6c0.4-1,0.9-2,1.5-2.9c0.3-0.4,1.9-3.2,2.3-3.1h0.1c-3.7,4.5-3.6,9.5-2.9,15.1c-0.1,0.2,0,0.5,0.2,0.7l0,0
				c0,0,0,0.1,0.1,0.1c1,1.1,2.1,2.3,2.5,3.7c-1.7-0.6-3.5-1.1-5.4-0.8c-2,0.3-6.1,1.7-8.1,0.5c0,0,0,0,0-0.1c0.1-2,4.9-2.5,6.2-2.3
				c0.3,0.1,0.6,0,0.8-0.2c0.6,0,1.2,0,1.8,0.2c0.4,0.1,0.7,0,0.9-0.2c0.5-0.3,0.7-1.3,0.1-1.8c-2.4-1.9-3.2-2.8-6.4-2.6
				c-3.1,0.1-6-0.9-9-1.3C33,202.5,40.8,205.3,43,205.3z"/>
			<path class="st2" d="M284.1,113.7c-2.4,1.2-4.9,2.4-7.3,3.7c2-3,4.3-5.8,5.9-9.1c0.6-1.2,1.7-2.5,1-3.8c-0.5-1-1.3-1.2-2.3-0.9
				c-0.2,0-0.3,0.1-0.4,0.2c-0.2-0.1-0.4-0.1-0.7,0c-4.4,1.5-7.9,4.9-12.4,6c-1.5,0.4-2.9,0.3-4,1.5c-1.2,1.3-2,3.4-2.8,5.1
				c0-0.1-0.1-0.2-0.1-0.3c0.6-5.4,4.2-9.5,8.5-12.6c0.4-0.3,0.5-0.8,0.4-1.2c0.1-0.5,0-1.1-0.7-1.2c-2.2-0.5-4.3-0.3-6.2,0.5
				c0.6-0.8,1.3-1.5,1.9-2.3c1.7-2,4.1-4.2,4.8-6.7c0.2-0.6-0.1-1-0.6-1.1c-0.1-0.1-0.1-0.1-0.2-0.2c-2.4-1-4.6-0.1-6.7,1.4
				c-1.5,1-2.7,2.3-3,4c-2-0.9-3.9-2.3-5.9-3.7c0.7,0.3,1.5,0.6,2.3,0.8c0.5,0.2,0.9-0.1,1.1-0.4c3.5-0.1,7.5-2.1,9.9-4.4
				c3.3-3.2,4.8-9.1,6.5-13.3c0.1,0,0.1-0.1,0.2-0.1c1.1-0.5,0.3-2-0.8-1.8c-0.3-0.1-0.7,0-0.9,0.4c-0.9,0.4-1.8,0.8-2.7,1.3
				c0.1-0.2,0.1-0.3,0.2-0.4c1.6-3.8,4.8-7.6,4.4-11.9c0-0.5-0.3-0.7-0.7-0.9c-0.4-0.6-1.3-0.8-1.6,0c-1.5,3.1-3.9,5.3-7,6.6
				c1.2-1.7,2.3-3.5,2.7-5.5c0.7-3.5,0.2-7.3,0.2-10.8c0-0.6-0.4-0.9-0.8-0.9c-0.5-0.4-1.4-0.3-1.6,0.5c-0.6,2.2-2.6,3.7-3.8,5.6
				c-0.4,0.5-0.7,1.1-1,1.6c1.1-3.3,1.4-6.7,0.9-10.2c-0.1-0.8-0.9-0.9-1.4-0.6c-0.6-0.5-1.8,0-1.6,1.1c0.3,1.2-1.7,3.1-2.3,4.2
				c-0.4,0.7-0.7,1.4-1.1,2l0,0c-0.6-0.2-1.1-0.6-1.6-1c0.1-0.1,0.2-0.2,0.3-0.3c1.1-1.6,2.3-3,2.6-5c0.3-2.3,0-4.9-0.4-7.2
				c-0.3-1.7-0.4-4.5-2-5.6c-1.1-0.8-2.7-0.6-4-0.5c-0.7-2.2-1.5-4.2-4-5.1c-0.5-0.2-0.9,0.1-1.1,0.4c2-5.6,5.4-14.3,0.1-18.9
				c-0.5-0.4-1.1-0.3-1.5,0.1c-0.3-0.1-0.6,0-0.8,0.3c-1.7,2.1-2.7,4.5-2.8,7.1c-1.1-2.6-2.6-4.8-5.6-5.5c-2.1-0.5-4.7-1.2-6.7-2
				c-1.3-0.6-2.7-1.2-4.1-0.4c-0.4,0.2-0.6,0.7-0.5,1.1c0.3,1.3,1.3,2.7,2.3,4c-0.5,0.2-1,0.8-0.6,1.4c2,3.3,4.3,7,7.3,9.5
				c2.9,2.3,6.8,2.7,9.9,4.5c0.3,2,0.5,4.2,1.1,6.2c0.4,1.3,1.3,2.2,2.3,2.9c0,0,0,0.1-0.1,0.1c-0.9,2.2-0.2,4.6,1.6,6.1
				c1,0.9,2.1,1.5,3,2.6c0.1,0.1,0.2,0.2,0.3,0.3c-1.5-1.2-3.2-2.1-4.1-3.8c-0.1-0.2-0.3-0.3-0.5-0.4c-0.5-0.4-1.6-0.2-1.8,0.7
				c-0.5,3.6-0.1,7.2,1,10.6c-0.1-0.1-0.2-0.1-0.3-0.2c-1.8-1.1-3.3-2.4-4.9-3.7c-0.4-0.8-1.9-0.7-1.9,0.4
				c-0.3,4.4,0.6,6.7,3.3,10.1c0.6,0.8,1.2,1.6,1.8,2.4c-0.4-0.2-0.8-0.4-1.2-0.8c-0.6-0.6-1.1-1.4-1.7-2c-0.3-0.3-0.6-0.3-0.9-0.3
				c-0.6-0.2-1.4,0.1-1.5,0.9c-0.2,2.4-0.3,5,0.9,7.1c-0.1,0-0.1,0-0.2-0.1c-0.5-0.4-1.4-0.4-1.6,0.4c-1.2,5,2.5,9.1,5.7,12.5
				c0.8,0.9,1.7,1.7,2.6,2.5c-1.4-0.4-2.8-0.6-4.3-0.4c-1.2,0.1-1.3,1.8-0.3,2c0.4,1.7,1.2,3,2.3,4l-0.1,0.1c-0.7,2.5,1.2,4.5,3.2,6
				c1.5,1.1,3.2,1.9,4.8,3c1.7,1.2,5.4,4.3,4.7,6.8c-4-2.7-7.9-5.1-11.1-8.9c-0.2-0.3-0.5-0.3-0.8-0.3c-0.6-0.1-1.2,0.2-1.1,0.9
				c0.3,3.9,0.7,7.5,1.7,11.1c-0.9-1.1-1.6-2.2-2.3-3.1c-1.2-1.7-2.4-3.5-3.4-5.3c0,0,0,0,0-0.1c0.3-1.1-1.2-1.6-1.7-0.9
				c-0.4,0.2-0.7,0.7-0.4,1.3c-1,4.4-0.3,8.2,1.4,12.4c0,0.1,0.1,0.2,0.1,0.3c-0.3-0.2-0.5-0.3-0.8-0.6c-0.5-0.4-1.3,0-1.5,0.6
				c-0.5,2.3,0.3,4.1,1.2,6.1l0,0c-4.2,1.8,2.3,13,3.3,15.6c1.3,3.1,2.3,6.9,4.6,9.5c3.2,3.7,10.1,4.6,10.8,10.3
				c0.2,1.3,2.2,1.3,2,0c0-0.1,0-0.2-0.1-0.3c1.5-2.1,6.2-2.1,8.5-3.2c2.5-1.1,4.9-2.7,7-4.4c4.6-3.7,8-8.4,10.5-13.7
				c0.3-0.7-0.1-1.3-0.7-1.5c-0.1-0.4-0.4-0.7-0.9-0.6c-1,0.1-1.9,0.3-2.8,0.6c0,0,0,0,0.1-0.1c2.2-2.7,3-6.8,3.5-10.1
				c0.1-0.4-0.1-0.7-0.3-0.9c2-2.7,3.9-5.9,4.5-9.1C286.1,113.4,284.5,112.8,284.1,113.7z M244.1,32l-0.1-0.1l0,0
				c0-0.1,0.1-0.2,0.1-0.4C244.1,31.7,244.1,31.8,244.1,32z M228.8,22.1c0.5,0.4,1.1,0.6,1.8,0.7c1.3,0.2,1.8-1.7,0.5-1.9
				c-1.8-0.3-3-2.7-4-4.1c-0.6-0.9-1.7-2-2.4-3.2c1.1,0.3,2.7,1.1,3.4,1.2c1.3,0.3,2.3,0.9,3.6,1.3c1.8,0.6,3.2,0.4,4.5,2.2
				c1,1.4,1.5,3.2,2.2,4.7c0.4,0.9,1.6,0.8,1.9,0.2c0.5-0.1,1-0.5,0.9-1.2c-0.5-2.9,0.3-5.7,2.1-8c3.9,4.1,0.6,12-1.1,16.6
				c-2.4-1.2-5.2-1.8-7.6-3.1C232.3,26.4,230.4,24.3,228.8,22.1z M249.1,47.4c-1.8-1.4-3.4-2.7-2.5-5.2c0.1-0.2,0.1-0.3,0.1-0.5
				c0.3-0.4,0.3-1.1-0.3-1.4c-1.7-1.1-2.1-2.1-2.4-4c-0.2-1-0.3-1.9-0.5-2.9c0.5-0.1,0.9-0.6,0.8-1.1c0.1,0.1,0.2,0.2,0.4,0.3
				c2.6,0.9,2.7,4.6,3.6,6.7c0.5,1.2,2.4,0.7,1.9-0.5c-0.1-0.3-0.3-0.7-0.4-1.1c1.6,0,2.3,0.4,3,2.3c0.5,1.3,0.6,3.2,0.7,4.5
				c0.1,1.1,0.2,2.5,0.1,3.6s-0.4,1.9-0.9,2.7c0-0.5-0.2-0.9-0.7-1.1c-0.2-0.1-0.5,0-0.7,0.1C250.7,49,250,48.1,249.1,47.4z
				 M245.2,49.9c-0.1,0.1-0.2,0.1-0.2,0.2c0-0.1,0-0.3,0-0.4C245,49.7,245.1,49.8,245.2,49.9z M237.8,74c1.5,0.7,2.4,1.8,3.4,3.2
				c0.8,1.2,1.9,1.9,3.4,1.6c1-0.2,0.9-1.5,0.1-1.8c-1-1.4-1.6-3-2.9-4.1c-1.2-1.1-2.3-1.7-2.8-3.4c-0.2-0.9-0.3-1.9-0.2-2.9
				c0.9,1,1.8,1.8,3.2,2.4c1.8,0.8,2.9,2.5,4.7,3.1c0.2,0,0.3,0.1,0.4,0c0.3,0.2,0.7,0.4,1.1,0.5c1.2,0.5,1.7-1.5,0.5-1.9
				c-3.1-1.2-4.4-4.3-6.3-6.8c-1.2-1.5-2.7-2.8-3.3-4.7c-0.2-0.9-0.3-1.7-0.3-2.6c0.8,0.7,1.6,1.3,2.5,1.9c1.6,1.1,3,1.8,4.1,3.5
				c0.2,0.2,0.4,0.3,0.6,0.4c0.7,0.7,2.1-0.2,1.5-1.3c-1.7-3.1-2.5-6.3-2.7-9.6c0.1,0.1,0.2,0.1,0.4,0.2c3.1,0.5,4.9,4,7.6,5.3l0,0
				c-1,0.8,0,2.5,1,1.7c1.7-1.3,2.4-3,3.4-4.8c0.5-0.9,1.1-1.6,1.6-2.4c0.1,3.8-0.9,7.4-2.9,10.7c-0.3,0.5-0.1,0.9,0.2,1.2
				c-0.2,0.7,0.9,1.5,1.7,0.9c2.1-1.6,3.1-3.9,4.6-6.1c0.8-1.2,1.7-2.1,2.5-3.2c0.1,2.2,0.2,4.3-0.1,6.4c-0.4,3.6-3,6.4-5,9.2
				c-0.8,1,1,2,1.7,1c0.2-0.2,0.3-0.4,0.5-0.6c0.1,0,0.3,0,0.5,0c3.4-0.8,6.3-2.7,8.5-5.4c-0.7,2.2-2.3,4.2-3.3,6.4
				c-0.9,2-1.6,3.7-2.9,5.1c-0.7,0.4-1.5,0.8-2.2,1.2c-0.3,0.2-0.4,0.4-0.5,0.6c-0.2,0.1-0.5,0.2-0.7,0.3c-1.2,0.4-0.7,2.3,0.5,1.9
				c1.6-0.6,3-1.4,4.2-2.5c1.3-0.7,2.7-1.4,4-2c-2.7,6.8-6,15.2-14.6,14.5c-0.3,0-0.5,0.1-0.6,0.2c-3.8-1.4-7.4-3.4-10.4-6.2
				C242,82.4,237.7,78.2,237.8,74z M253,101.8c-1.9-1.8-8.9-4.5-9.1-7.6c2,1.3,4.5,2.2,6.6,3.1c1.2,0.5,2.2-1.2,1-1.7
				c-3.4-1.5-8.4-2.8-9.6-6.8c3.6,0.4,6.9,3.3,9.7,5.3c2.6,1.9,5.3,3.7,8.4,4.7c0.6,0.2,1-0.2,1.2-0.7c0.1-0.2,0.2-0.5,0.1-0.8
				c-0.6-2.4,3.9-5.3,6.2-4.8c-1.2,2.6-4.2,5.3-5.9,7.4c-1.6,2-3.2,3.9-4.3,6.2c-0.5,1.2,1.2,2.2,1.7,1c0.4-0.9,1-1.8,1.5-2.7
				c0.4,0.3,0.9,0.3,1.3-0.1c1.5-1.4,3.4-2.1,5.4-1.9c-3.6,2.8-6.5,6.3-7.7,10.6c-0.9-1.3-2-2.4-3.3-3.4c0.1-0.1,0.3-0.2,0.3-0.4
				C257.6,106.7,254.9,103.5,253,101.8z M279.8,122.5c-1.9,2.8-4.2,5.2-7.5,6.4c-1.2,0.4-0.7,2.4,0.5,1.9c2.6-0.9,4.8-2.5,6.6-4.5
				c-0.5,2.6-1.3,5.3-2.8,7.2c-0.8,1-1.8,1.8-2.6,2.7c-0.8,1-1.4,2.6-2.5,3.3s-0.1,2.4,1,1.7c0.7-0.4,1.1-0.9,1.4-1.4
				c0.9-0.1,1.5-0.7,2.3-1.4c1.2-1.1,2.6-1.8,4.2-2.1c-2.9,5.8-7.1,10.8-12.6,14.3c-3.1,2-6,2.5-9.4,3.5c-1,0.3-1.8,0.6-2.4,1.2
				c-1.8-4.1-6.5-5.4-9.9-8.6c-3.1-3-4.3-7.7-5.9-11.6c-0.4-1-4.4-10.4-3.7-10.7c0.1,0,0.2-0.1,0.3-0.2c1,2.1,2.1,4.1,3.2,6.1
				c0.6,1.1,2.4,0.1,1.7-1c-1-1.7-1.9-3.4-2.8-5.2c-0.8-1.7-2.1-3.8-2.3-5.8c0.4,0.2,0.7,0.3,1.1,0.5c0.1,0,0.2,0,0.2,0
				c1,2.6,2.3,5.1,4.9,6.2c1.2,0.5,1.7-1.5,0.5-1.9c-2.9-1.2-4.2-6.4-5.2-9c-1.1-2.7-1.5-5.3-1.2-7.9c1,1.5,2,3,3.1,4.4
				c1.4,1.9,3,4.2,5.1,5.4c1,0.6,2-0.9,1.2-1.6c0,0,0,0,0-0.1c-1.6-3.7-2.1-7.3-2.5-11.1c1.7,1.8,3.6,3.3,5.7,4.7
				c3.6,2.4,7.6,4.3,9.3,8.4c0,0.1,0,0.2,0,0.3c0,0.5,0.2,0.8,0.6,0.9c0.3,0.3,0.8,0.3,1.2,0.2c0.2,0.8,1.3,1.2,1.8,0.3
				c1.1-1.9,1.8-4.3,3.7-5.5c1.4-0.8,3.1-0.9,4.6-1.6c3.5-1.5,6.4-3.9,10-5.2c0.2-0.1,0.3-0.1,0.4-0.2c0.2,0.1,0.4,0.2,0.7,0.1
				c-0.4,0.1-1.1,2.3-1.3,2.8c-0.7,1.5-1.4,2.8-2.3,4.1c-1.5,2.1-3.3,4.1-4.6,6.4c-0.1,0.2-0.1,0.4-0.1,0.6
				c-0.3,0.7,0.5,1.7,1.4,1.3c2.8-1.4,5.6-2.8,8.3-4.2C282.4,118.5,281,120.6,279.8,122.5z"/>
			<path class="st2" d="M278.3,191.3c-0.1-0.2-0.3-0.3-0.5-0.4c-2.2-0.9-4.7-1-7.2-1c1.2-0.5,2.4-1.1,3.5-1.8c1.1-0.6,0.1-2.3-1-1.7
				c0,0,0,0-0.1,0c-2.9-0.3-5.7-1-8.4-2.3c-1.4-0.7-2.6-1.7-4.2-2.1c-1.9-0.4-4.1-0.2-6.2,0.2c0.2-0.2,0.4-0.3,0.5-0.5
				c1.4-1.4,2.3-3.3,3.7-4.7c4.6-4.7,8.5,0.7,13.4,0.4c0.7,0,1-0.6,1-1.1c0.1-0.2,0.2-0.4,0.1-0.7c-0.6-2.5-1.3-5-3.6-6.6
				c-1.4-0.9-3-1.4-4.6-1.3c0.5-0.4,0.9-0.8,1.4-1.1c1.7-1.4,4-2.7,4.1-5.2c0-0.6-0.5-1-1-1c-0.1,0-0.2-0.1-0.3-0.1
				c-4.7-0.8-8.1,3.2-11.4,6c0-1.8-0.2-3.5-1.1-5.1c-1.2-2.1-2.9-4.4-4.8-5.9c-2.3-1.9-8.2-3.9-7.8,1c0,0.5,0.3,0.7,0.7,0.9
				c0,0.1,0.1,0.1,0.1,0.2l0,0c-0.4,0.2-0.7,0.6-0.9,1.1c-0.4,1.1,0.1,2.8,0.6,3.8c0.2,0.5,0.5,0.9,0.9,1.3
				c-1.9-0.6-3.7-1.4-5.1-2.9c-1.9-2.1-3.1-5-4.4-7.5c0-0.1-0.1-0.1-0.2-0.2c-0.2-0.9-1.6-1.1-2-0.1c-2.4,7.7-0.4,13.7,3.7,19.8
				c-2.2-0.8-4.4-1.8-6.2-3.3c-0.2-0.1-0.3-0.2-0.5-0.2c-0.6-0.7-1.9-0.5-1.8,0.5c0.2,1.9,0.7,3.7,1.7,5.3c0,0.1,0.1,0.1,0.1,0.2
				c-2.4-1.9-5.1-4.8-7-5c-0.6-0.1-1.3,0.2-1.3,1c0.1,5.6,4.2,10.4,7.5,14.6c1.4,1.7,2.6,2.7,4.6,3.8c1,0.5,1.9,1,2.8,1.5
				c-0.3,0.3-0.4,0.8-0.2,1.2c-0.7,0.1-1.2,1-0.6,1.7c3.4,4.1,3.2,8.7,2.5,13.7c-1.6,1.7-2.9,3.5-2.9,5.9c0,0.5,0.3,0.8,0.6,0.9
				c0.2,0.3,0.6,0.5,1,0.3c2.1-0.8,3.9-1.3,6.2-1.1c1.3,0.2,2.5,0.5,3.8,0.6c2,0.2,4.2,0.4,5.8-1c0.4-0.3,0.4-0.7,0.2-1.1
				c0-0.1,0-0.1,0-0.2c-0.2-3.3-4.8-4.4-7.8-4.3c-0.1,0-0.1-0.1-0.2-0.1c-0.2,0-0.4,0-0.5-0.1c0.5-0.3,1-0.5,1.8-0.6
				c1.1-0.2,2.2,0.1,3.3,0.1c2.9-0.1,5.6-1.3,8.5-1.5c0.8-0.1,1.1-0.9,0.9-1.5c0-0.1,0-0.2,0-0.3c-1.8-5-9.5-1.8-13.5-1.4
				c0-0.1,0-0.1-0.1-0.2c-0.6-0.7-1-1.5-1.4-2.3c0.1,0.1,0.3,0.1,0.4,0.1c0.2,0.1,0.5,0.2,0.8,0.1c6-2,12.5,0.1,18.7-1.3
				c4.8-1.1,10.7-2.7,14.5-6C279.6,192.3,279,191.4,278.3,191.3z M257.2,204c-3,0.4-5.9,1.4-9,1.3c-3.2-0.1-3.9,0.8-6.4,2.6
				c-0.7,0.5-0.5,1.5,0.1,1.8c0.2,0.2,0.5,0.3,0.9,0.2c0.6-0.1,1.2-0.2,1.8-0.2c0.2,0.2,0.5,0.3,0.8,0.2c1.3-0.2,6.1,0.3,6.2,2.3
				c0,0,0,0,0,0.1c-2,1.2-6.2-0.2-8.1-0.5c-1.9-0.3-3.6,0.2-5.4,0.8c0.4-1.4,1.4-2.6,2.5-3.7c0,0,0-0.1,0.1-0.1l0,0
				c0.2-0.2,0.2-0.5,0.2-0.7c0.8-5.6,0.8-10.6-2.9-15.1h0.1c0.4-0.1,1.9,2.5,2.1,2.8c0.7,1,1.2,2.1,1.7,3.2c0.7,1.7,1.2,3.3,2.4,4.6
				c0,0.5,0.3,0.9,1,0.9C247.5,204.6,255.3,201.8,257.2,204z M258.9,197.7c-4.5,0.2-8.8-0.8-13.3,0.4c-1.4-4.1-4-7.2-8-9.2
				c-3.8-1.9-5.4-3.1-8-6.6c-2.2-3-4.6-5.9-5.2-9.6c3.8,1.9,5,8.3,10.2,6.1c0.5-0.2,0.7-0.6,0.7-1c0.1-0.4-0.1-0.9-0.7-1
				c-1.2-0.3-2.1-2.1-2.7-3c-0.3-0.5-0.5-1-0.7-1.6c2.7,1.8,5.7,2.8,8.8,3.7c1.2,0.4,1.8-1.6,0.5-1.9c-0.1,0-0.1,0-0.2-0.1
				c-4.1-5.7-6.8-11-5.5-17.8c1.2,2.4,2.4,4.9,4.4,6.7c2.4,2.2,5.5,2.9,8.7,3.7c1.2,0.3,1.7-1.4,0.7-1.8c0-0.3-0.1-0.7-0.5-0.9
				c-1.2-0.8-2.1-1.9-2.5-3.4c-0.2-0.7-0.4-1.2,0.6-1.1c0.3,0,0.5,0.1,0.7,0.3c0.1,0.1,0.3,0.2,0.4,0.3c0.2,0.2,0.3,0.4,0.4,0.6
				c0.2,0.3,0.4,0.5,0.7,0.5c0.4,0.4,0.7,0.9,1,1.5c1.2,2.6,2.4,5.1,3.6,7.7c0.5,1.2,2.3,0.1,1.7-1c-1.3-2.8-2.5-5.6-3.9-8.3
				c-1.2-2.2-3.2-3-4.8-4.8c0.9-0.9,1.8-0.9,2.8-0.2c0.7,0.4,1.4,0.9,1.9,1.5c1,1,1.9,2.1,2.7,3.3c1.7,2.4,2.1,4.6,1.9,7.6
				c-0.1,1.3,1.9,1.3,2,0v-0.1c0.4,0.2,0.8,0.3,1.2-0.1c2.5-2,5.7-5.9,9.2-5.7c-0.5,0.9-1.6,1.6-2.3,2.1c-1,0.8-2,1.6-2.9,2.4
				c-1.8,1.5-3.7,3.1-5.5,4.6c-1,0.8,0.4,2.2,1.4,1.4c1.2-1,2.4-2,3.6-3c0.2,0.2,0.5,0.3,0.9,0.2c1.8-0.6,3.7-0.3,5.2,0.8
				s2.1,2.8,2.5,4.5c-2.4-0.4-4.3-2.2-6.8-2.5c-2.1-0.2-4.2,0.3-5.9,1.6c-1.9,1.4-2.8,3.6-4.3,5.3c-1.2,1.3-2.6,2-3.8,3.1
				c-0.4,0.1-0.6,0.3-0.6,0.7c-0.3,0.3-0.6,0.7-0.8,1.1c-0.7,1.1,1.1,2.1,1.7,1c0.2-0.3,0.4-0.6,0.7-0.9c2.3-0.4,4.8-1,7.1-1
				c2.8,0,4,1.2,6.3,2.3c1.8,0.9,3.7,1.5,5.6,1.8c-1.6,0.8-3.3,1.5-5.1,2.1c-1.2,0.4-0.7,2.2,0.4,1.9c0.1,0,0.1,0,0.2,0
				c3.3,0,7.4-0.6,10.7,0.4C271.6,195.6,263.9,197.4,258.9,197.7z"/>
			<path class="st2" d="M257.1,222c-2.5,0.3-5.1,0.5-7.7,0.4c-4.3-0.2-5.6-2.6-8.8-4.8c-1.7-1.1-3.5-1.5-5.3-1.2
				c0.3-2.5,0.5-5-0.1-7.5c-1.1-4.1-3.3-6.8-1.5-11c0.8-0.2,0.8-1.5,0-1.9c-0.3-0.3-0.8-0.4-1.1-0.1c-2.3,0-4.4,1-5.9,2.7
				c-1.5,1.8-1.7,4.3-2.5,6.6c-0.3-1-0.4-1.9-0.5-2.9c-0.1-1.4-0.4-3.8,0.5-4.9c0.5-0.6,0.2-1.4-0.4-1.7c0-0.6-0.5-1.3-1.2-1.1
				c-2.1,0.5-3.2,2.1-4,3.9c-0.1,0-0.2,0-0.3,0s-0.3,0-0.4,0.1c-0.1-0.3-0.4-0.6-0.9-0.6c-3.8-0.1-6,4.5-7.3,9.2
				c-0.2,0-0.4,0-0.6,0.1c-5.3,2.3-6.5,9.3-7.2,14.4c-0.5,3.3-0.6,6.7-0.5,10.1c0,1.8,0.4,3.9,0.5,6c-0.7-2.1-2-3.7-4.7-3.9
				c-1.9-0.1-2.3,1.1-2.2,2.8c0.1,0.8,0,1.5,0,2.3c-0.9-1-2.2-1.5-3.2-0.1c-0.8,1.1-0.7,2.8-1.2,4.1c-0.8,2.2-1.9,4.3-2.9,6.5
				c-0.2,0-0.4,0.1-0.6,0.2c-1.5,0-3-0.1-4.5,0.3c-2.3,0.7-4.2,1.5-6.6,1.4c-0.4,0-0.7,0.2-0.8,0.4l-8.8-22.2h-1
				c-6.5-0.3-16.9-0.4-20.7,1.9c-4.4-2.2-16.8-2.1-24.5-1.7h-1.1l-6.2,22.7c-0.2-0.2-0.4-0.3-0.7-0.3c-2.5,0-4.4-0.7-6.6-1.4
				c-1.5-0.5-3-0.3-4.5-0.3c-0.1-0.1-0.3-0.2-0.6-0.2c-1-2.1-2.1-4.3-2.9-6.5c-0.5-1.2-0.3-3-1.2-4.1c-1-1.3-2.3-0.8-3.2,0.2
				c-0.1-0.6-0.1-1.3-0.1-1.9c0.1-1.8,0.1-3.3-2.2-3.2c-2.7,0.1-4,1.7-4.7,3.9c0.1-2.1,0.5-4.2,0.5-6c0.1-3.4-0.1-6.7-0.5-10.1
				c-0.7-5.1-1.9-12.1-7.2-14.4c-0.2-0.1-0.4-0.1-0.6-0.1c-1.3-4.7-3.5-9.3-7.3-9.2c-0.4,0-0.7,0.3-0.9,0.6c-0.1,0-0.3,0-0.4-0.1
				c-0.1,0-0.2,0-0.3,0c-0.8-1.8-2-3.4-4-3.9c-0.8-0.2-1.3,0.5-1.2,1.1c-0.6,0.2-1,1-0.4,1.7c1,1.1,0.7,3.5,0.5,4.9
				c-0.1,1-0.3,2-0.5,2.9c-0.7-2.2-1-4.7-2.5-6.5s-3.6-2.7-5.9-2.7c-0.4-0.2-0.8-0.1-1.1,0.1c-0.8,0.4-0.8,1.7,0,1.9
				c1.8,4.2-0.4,6.9-1.5,11c-0.6,2.5-0.5,5-0.1,7.5c-1.8-0.4-3.6,0-5.3,1.2c-2.9,1.9-3.8,4.1-7.6,4.7c-2.9,0.4-6,0.1-9-0.2
				c-1-0.1-1.2,1-0.7,1.6c0.1,0.1,0.1,0.2,0.3,0.4c2,1.7,3.9,3.6,6.2,5c0.6,0.3,1.1,0.6,1.7,0.8c-1.7,0.3-3.4,0.5-4.9,0
				c-0.2-0.1-0.3-0.1-0.5,0l0,0c-1.1-0.7-2.1,1-1,1.7c3.6,2.4,7.5,4,11.6,4.8c0,0,0,0-0.1,0l0,0c-0.1,0-0.1,0-0.2-0.1
				c-1.2-0.5-1.7,1.5-0.5,1.9c4.5,1.8,9,2.7,13.7,3.3c-1.2,0.3-2.5,0.6-3.7,1c-0.3,0.1-0.5,0.3-0.6,0.6c-0.1,0.1-0.2,0.2-0.3,0.4
				c-1.8,5.1,5,5.5,8.3,5.8c4.2,0.5,8.5,0.8,12.7,0.5c0.2,0,0.3,0,0.5,0c0,0.3,0,0.6,0,0.9c0.7,3.8,5,3.3,8.9,2.4
				c-0.6,0.9-0.5,1.9,1.2,2.7c1.4,0.6,3.1,0.7,4.6,0.3c0.9-0.2,1.8-0.7,2.7-1.2c-0.4,0.9,0,1.8,0.8,2.4c1.6,1.2,4,1.6,5.9,1.9
				c0.6,0.1,1.2,0.2,1.8,0.3c1.1,0.3,1.5,0.1,1.4,1.3c-0.2,1.4-1.4,2.1-2.6,2.6c-0.1,0-0.1,0.1-0.2,0.1h-7h-0.4
				c-1.1,0.3-3.2,1.6-2.9,4.7c0.3,2.9,2.4,4.2,3.6,4.4H107l-3.1,11.4l2.3-0.4c9.1-1.6,33.7-4.5,38.2,1.8l1.2,1.7l1.2-1.7
				c3.8-5.3,25.7-3.9,38.6-1.7l2.6,0.4l-4.5-11.4H195h0.1c1.5-0.3,4.2-1.6,4-4.7c-0.2-2.9-2-4.2-3-4.4l-0.2-0.1h-5.7
				c0-0.3-0.1-0.7-0.5-0.9c-0.8-0.3-2.2-1-2.5-1.7c-0.1-0.6-0.1-1.2-0.2-1.7c0.4-0.1,0.7-0.3,1.1-0.3c0.6-0.1,1.2-0.2,1.8-0.4
				c2-0.4,4.6-0.7,6.3-2c0.8-0.6,1.2-1.6,0.8-2.4c0.9,0.5,1.7,0.9,2.7,1.2c1.5,0.4,3.2,0.3,4.6-0.3c1.7-0.8,1.8-1.8,1.2-2.7
				c3.9,0.9,8.2,1.4,8.9-2.4c0.1-0.3,0.1-0.6,0-0.9c0.2,0,0.3,0,0.5,0c4.2,0.2,8.5-0.1,12.7-0.5c3.3-0.4,10-0.8,8.3-5.8
				c-0.1-0.2-0.1-0.3-0.2-0.4c-0.1-0.3-0.3-0.5-0.6-0.6c-1.2-0.4-2.4-0.7-3.7-1c4.6-0.6,9.2-1.5,13.7-3.3c1.2-0.5,0.7-2.4-0.5-1.9
				c-0.1,0-0.1,0-0.2,0.1l0,0c0,0,0,0-0.1,0c4.1-0.8,8-2.4,11.6-4.8c1.1-0.7,0.1-2.4-1-1.7l0,0c-0.1,0-0.3,0-0.5,0
				c-1.5,0.5-3.2,0.4-4.9,0c0.6-0.2,1.1-0.5,1.7-0.8c2.3-1.3,4.2-3.3,6.2-5c0.1-0.1,0.2-0.2,0.3-0.4
				C258.3,223,258.1,221.9,257.1,222z M178.7,256.5c0.1,1.8,0.2,3.4,1.1,5c0.6,1.1,1.5,2,2.6,2.6h-2.3l-2.8-7
				C177.8,257,178.3,256.7,178.7,256.5z M109.6,257.3c0.6,0.2,1.6,0.9,1.8,1l-1.6,6h-2.9c0.6-0.5,1.1-1.2,1.6-1.9
				C109.4,260.6,109.4,259,109.6,257.3z M73.1,248.4c-2.3,0.1-19.6,0.2-19.1-3.5c3.2-1,6.5-1.7,9.9-1.8c1.2,0,1.3-1.8,0.2-2
				c-0.1-0.1-0.3-0.2-0.5-0.2c-5.6-0.6-11-1.2-16.3-2.7c0.5-0.2,0.9-0.3,1.4-0.5c0.1,0,0.2-0.1,0.2-0.2c1-0.2,0.9-1.9-0.2-2
				c-4-0.2-7.7-1.1-11.2-2.7c1.9-0.2,3.9-0.8,5.7-1.1c0.1,0,0.1,0,0.2-0.1c0.1,0,0.3,0,0.4,0c1.3,0.1,1.3-1.9,0-2
				c-3.9-0.4-6.6-2.2-9.4-4.5c2.8,0.2,5.7,0.3,8.3-0.5c4.1-1.2,7-7.6,11.8-4.8c1.1,0.6,2.1-1.1,1-1.7c-0.1,0-0.1-0.1-0.2-0.1
				c0-0.1,0-0.2,0-0.3c-0.4-2.7-0.7-5.6,0.2-8.2c0.6-1.9,1.7-3.5,2.1-5.5c0.3-1.8,0.1-3.5-0.5-5.2c2,0.4,3.6,1.8,4.2,4
				c0.6,2.1,0.9,4.1,2.1,6c-0.3,1.1,1.3,2,1.8,0.9c1.3-3.1,3-8.6,1.2-11.9c2.3,1.4,2.8,5.5,3.4,7.8c0.6,2.4,2,5.2,1.8,7.6
				c-0.1,1.3,1.9,1.3,2,0c0.2-1.8-0.5-3.3-1-5c-0.7-2.1-1-4.3-1.7-6.4c0-0.1-0.1-0.2-0.1-0.3c0.5,0.1,1-0.1,1.2-0.6
				c4.2,0.6,6.1,12.6,6.5,15.7c0.2,1.3,2.1,0.7,1.9-0.5c-0.2-1.3-0.5-3.4-1-5.7c6.2,4,6,16.9,5.7,23.1c-0.2,4-1.3,8.5,0.5,12.1
				C81.3,245.3,77.4,248.1,73.1,248.4z M87.8,254.7c-0.9,0.2-4.5,0-2.2-1.2c0.4-0.2,0.5-0.5,0.5-0.8c0.9-0.2,1.7-0.4,2.3-0.4
				c1.3,0,1.3-2,0-2c-1.6,0.1-3.1,0.3-4.6,0.7c-1.5,0.4-5.4,2-6.9,1.2c-0.4-0.6-0.8-1.2-1.2-1.8c0.5-0.1,1-0.2,1.5-0.4
				c0.8-0.2,1.7-0.4,2.5-0.6c2.1-0.5,4.3-1.2,6.4-1c0.5,0,0.8-0.3,0.9-0.7l0,0c0.9,0.6,2.1-0.7,1.2-1.5c-0.2-0.2-0.3-0.3-0.5-0.5
				c0-0.1,0.1-0.3,0-0.5c-0.3-2.1-0.7-4.7,0.4-6.7c0.4-0.8,1.2-1.8,2.2-1.6c0.8-0.2,0.9,0.1,0.6,0.9c0,0.4,0,0.9,0,1.3
				c0.2,3,1.2,6,1.9,8.9c0.3,1.3,2.2,0.7,1.9-0.5c-0.4-1.5-0.8-3.1-1.2-4.7c0.1-0.1,0.2-0.3,0.2-0.4c0-0.2,0.5-1.7,1-1.4
				c0.1,0.1,0.1,0.8,0.2,0.9c0.2,1.1,0.5,2.1,1,3.1c0.8,2,1.7,3.9,2.6,5.8c-0.5,0.2-1,0.5-1.5,0.7c-2-0.3-3.6,0.2-5.4,1.1
				C90.6,253.4,89.3,254.4,87.8,254.7z M102.6,259.3c-1.3-1.2-3.7-1.2-5.4-1.6c-0.5-0.1-3.8-0.7-3.9-1.2c-0.2-0.9,2.4-0.5,3-0.5
				c1.3,0.2,1.3-1.8,0-2c-0.7-0.1-1.6-0.2-2.4-0.1c0.9-0.4,1.8-0.6,2.8-0.5c0.3,0.2,0.7,0.3,1.1,0.1c0.8-0.5,1.7-0.9,2.5-1.3
				c2.3,0.1,4.2,0.1,6.5,0.9c1.8,0.6,3.6,0.9,5.6,0.9c0.1,0,0.2,0,0.3-0.1l-0.6,2.2c-1.4-0.7-3.6-2-4.3-0.1c-0.2,0.5,0,1.2,0,1.8
				c0,0.9-0.2,1.7-0.5,2.5c-0.6,1.4-1.6,2.7-3.1,3.2c-0.3,0.1-0.5,0.3-0.6,0.6h-1.7C103.2,262.8,104.2,260.9,102.6,259.3z
				 M92.1,270.5c-0.3-0.1-1.1-0.5-1.2-1.8c-0.1-1,0.3-1.3,0.5-1.5H109l-0.9,3.3H92.1z M183.6,281.1c-8.1-1.2-30.5-3.8-37.7,2.1
				c-3.5-2.9-10.3-3.8-17.4-3.8c-7.9,0-16.1,1.1-20.2,1.8l2.1-7.7l0.8-3l0.9-3.3l0.8-3l8.6-31.6c9.8-0.3,20.7,0.1,22,1.4l1.5,2.7
				l1.2-2.8c1-1.2,9.2-1.9,18.1-1.5l12.6,31.7l1.2,3l1.3,3.3l1.2,3L183.6,281.1z M195.7,267.2c0.2,0.2,0.7,0.6,0.8,1.7
				c0.1,1-0.9,1.4-1.4,1.5h-12.5l-1.3-3.3L195.7,267.2L195.7,267.2z M192,255.3c0.6-0.1,3.2-0.4,3,0.5c-0.1,0.6-3.3,1.1-3.9,1.2
				c-1.7,0.3-4.1,0.3-5.4,1.6c-2,1.9-0.2,4.3,1.7,5.7h-2.6c0.2-0.5,0-1.1-0.6-1.3c-1.4-0.5-2.3-1.5-2.9-2.8
				c-0.4-0.9-0.6-1.9-0.7-2.9c0-0.6,0.1-1.3,0-1.8c-0.6-1.8-2.6-0.8-4-0.1l-0.8-2.1c0.1,0,0.1,0,0.2,0c1.9,0,3.7-0.2,5.6-0.9
				c2.3-0.8,4.1-0.8,6.5-0.9c0.9,0.4,1.7,0.8,2.5,1.3c0.4,0.2,0.8,0.1,1.1-0.1c1-0.1,1.9,0.1,2.8,0.5c-0.9-0.1-1.8,0-2.4,0.1
				C190.8,253.5,190.7,255.5,192,255.3z M211.3,251.4c-1.8,0.6-4.6-0.7-6.4-1.1c-1.7-0.4-3.3-0.7-5.1-0.8c-1.3,0-1.3,2,0,2
				c0.6,0,1.4,0.2,2.3,0.4c0,0.3,0.1,0.6,0.5,0.8c2.3,1.2-1.2,1.4-2.2,1.2c-1.5-0.4-2.8-1.4-4.1-2.1c-1.8-0.9-3.4-1.4-5.4-1.1
				c-0.5-0.3-1-0.5-1.5-0.7c0.9-1.9,1.8-3.9,2.6-5.8c0.4-0.9,0.7-1.8,0.9-2.7c0-0.1,0.1-0.9,0.2-1c0.5-0.6,0.9,0.4,1,1.1
				c0,0.2,0.1,0.3,0.2,0.4c-0.4,1.6-0.8,3.2-1.2,4.7c-0.3,1.3,1.6,1.8,1.9,0.5c0.7-2.9,1.7-5.9,1.9-8.9c0-0.3-0.2-2-0.1-2.2
				c1-0.9,2.5,0.9,2.9,1.5c1.1,2,0.7,4.5,0.4,6.7c0,0.2,0,0.3,0,0.5c-0.1,0.2-0.3,0.4-0.5,0.5c-0.9,0.8,0.3,2.1,1.2,1.5l0,0
				c0.1,0.4,0.4,0.7,0.9,0.7c2-0.2,4,0.4,5.9,0.9c0.8,0.2,1.7,0.4,2.5,0.6c0.5,0.1,1,0.2,1.5,0.4
				C213.1,249.6,212.9,250.2,211.3,251.4z M244.7,228.8c-1.3,0.1-1.3,2.1,0,2c0.1,0,0.3,0,0.4,0c0.1,0,0.1,0.1,0.2,0.1
				c1.7,0.3,3.7,0.9,5.6,1.1c-3.5,1.6-7.3,2.6-11.2,2.7c-1.2,0-1.3,1.8-0.2,2c0.1,0.1,0.1,0.1,0.2,0.2c0.4,0.2,0.9,0.4,1.4,0.5
				c-5.3,1.6-10.8,2.1-16.3,2.7c-0.2,0-0.4,0.1-0.5,0.2c-1.1,0.2-1,1.9,0.2,2c3.4,0.1,6.7,0.8,9.9,1.8c0.6,3.9-16.7,3.7-19.1,3.5
				c-4.3-0.2-8.2-3.1-12.3-3c1.8-3.6,0.7-8.1,0.5-12.1c-0.2-6.2-0.5-19.1,5.7-23.1c-0.5,2.3-0.8,4.4-1,5.7s1.7,1.8,1.9,0.5
				c0.5-3.1,2.3-15.1,6.5-15.7c0.2,0.5,0.7,0.7,1.2,0.6c0,0.1-0.1,0.2-0.1,0.3c-0.7,2.1-1,4.3-1.7,6.4c-0.5,1.7-1.2,3.1-1,5
				c0.1,1.3,2.1,1.3,2,0c-0.2-2.4,1.2-5.3,1.8-7.6s1.1-6.4,3.4-7.8c-1.8,3.3-0.1,8.9,1.2,11.9c0.5,1.1,2,0.2,1.8-0.9
				c1.1-1.9,1.5-3.9,2.1-6s2.2-3.6,4.2-4c-0.6,1.7-0.8,3.4-0.5,5.2c0.3,1.6,1,2.9,1.5,4.4c1.2,3.2,1.2,6,0.7,9.3c0,0.1,0,0.2,0,0.3
				c-0.1,0-0.1,0.1-0.2,0.1c-1.1,0.6-0.1,2.4,1,1.7c4.7-2.7,7.7,3.6,11.8,4.8c2.6,0.8,5.5,0.7,8.3,0.5
				C251.3,226.6,248.6,228.4,244.7,228.8z"/>
			<path class="st2" d="M104.4,144.7l1.7,3.7c0,0,0,0.1-0.1,0.1l-0.1-0.1c-0.3,0.6-0.6,1.2-0.8,1.8c-1.6,3-2.7,6.4-3.3,9.9
				c-0.1,0.6-0.2,1.2-0.2,1.8l0.5-0.2l0,0l-0.4,0.2c-0.1,1-0.1,2.1-0.1,3.2c0,1.6,0.1,3.1,0.2,4.7c0.1,2.5,0.4,5,0.9,7.3
				c0,0.1,0.1,0.3,0.1,0.4c1,5.2,2.5,9.6,3.8,12.6v0.4v3.7c-0.4,4.6-1.4,9.1-2.3,10.8c-16.9-7.9-27.6-20.8-31.8-38.4
				c-2.7-11.4-1.7-21.2-1.3-24.1l27.6-8.7l-0.9-2.9l-29.4,9.2l-0.2,0.9c-0.1,0.5-8.2,47.6,35.7,67.2l0.8,0.3l0.7-0.5
				c2.4-1.7,3.5-9.1,3.9-12.9c0.3,0.4,0.6,0.8,0.9,1.2c7.3,9.4,18.3,15.1,31.1,15.1c6.7,0,13-1.6,18.7-4.5c3.9-2,7.5-4.5,10.7-7.6
				c-0.2,3,0,7.1,1.9,9.4c0.9,1.1,2.2,1.8,3.6,1.8h0.3l0.3-0.1c24.9-9.1,34.6-27.1,38.3-40.7c4.1-14.6,2.3-27,2.2-27.5l-0.1-0.9
				l-35.7-10.4l16.6-40l19.2-6.5v-1.1c0-0.3-0.2-25.2,0-31.7l0.1-2.2l-2.1,0.8c-17.5,6.5-44.9,2.4-45.2,2.4l-1.3-0.2L153.8,106
				l24.5-8.3L166,124.8c-9-7.9-18.2-16.4-24.1-22.3c-1-1-1.9-1.9-2.6-2.7c-2-2.2-3.3-3.7-3.6-4.5c-1.2-4.9-1-8.2,0.5-9.5
				c0.9-0.8,2.5-0.7,3.7-0.4c-1.7,1.4-2.7,3.4-2.7,5.5c0,3.8,3.2,6.9,7.4,7.7c0.6,0.1,1.2,0.2,1.9,0.2c2.3,0,4.4-0.7,6.1-1.9
				c1.7-1.2,2.8-2.9,3.2-4.9c0.7-1.7,1.1-3.5,1.1-5.4c0-9-8.4-16.2-18.7-16.2c-7.9,0-14.6,4.3-17.3,10.3l-5.5-29.1l-1.5,0.3
				c-0.3,0.1-29.9,5.5-43.1-2.1l-2-1.2l-0.5,2c-0.8,9.7-0.9,33.8-0.9,34.8v1.1l11.9,3.8L104.4,144.7z M174.7,194.8l-2.7-1.3l0.4,0.2
				L174.7,194.8z M214.5,143.6c0.3,3.1,1,13.6-2.3,25.4c-5.2,18.6-17.3,31.5-36.1,38.5c-0.5-0.1-0.8-0.3-1.2-0.7
				c-1.6-2-1.4-7.5-0.9-10.6l0.6-1.3c6.5-8.1,10.4-18.7,10.4-30.2c0-9.4-2.6-18.1-7.1-25.4l2.9-6.9l-0.4,1.3L214.5,143.6z
				 M158.2,101.2l12.9-45.6c5.6,0.7,27.2,3.1,43.3-2c-0.1,7.5,0,24.1,0,28.6l-14.7,5l2.6-6.4c1.2,0.1,2.7,0,3.9-1
				c0.6-0.5,1.3-1.5,1.2-3.1c-0.1-1.8-0.6-3.2-1.5-4s-1.9-0.8-2.2-0.8h-15.4c-0.7-0.2-2.5-0.4-3.9,0.7c-1.1,0.9-1.6,2.3-1.5,4.3
				s0.8,3.4,2,4.1c0.3,0.2,0.6,0.3,0.8,0.4L180,93.8L158.2,101.2z M182.1,96.3l1.7-3.7l5.4-11.8c0.3-0.6,0.2-1.3-0.3-1.7l-0.7-0.8
				l-0.9,0.3c-0.3,0.1-0.7,0.1-0.9,0c-0.1-0.1-0.5-0.4-0.6-1.9c-0.1-0.9,0.1-1.5,0.3-1.7c0.3-0.3,1.1-0.2,1.4-0.1l0.2,0.1h16
				c0.3,0,0.6,0.5,0.7,1.9c0,0.4-0.1,0.6-0.2,0.7c-0.3,0.2-1,0.4-2.1,0.2c-1-0.2-1.9,0.3-2.3,1.2l-3.9,9.4l-1.5,3.7l-18.3,44.2
				l-1.4,3.3l-23.3,56.2l3.8-2.2c22.6-13.2,16-36.8,16-37l-0.4,0.1l5.7-13.8c0.2,0.3,0.3,0.6,0.5,0.9c3.2,6.2,5.1,13.3,5.1,20.9
				c0,17.2-9.4,32.1-23,39.2c-5.4,2.8-11.4,4.4-17.8,4.4c-13.7,0-25-7-31.6-18.2c-0.8-1.9-1.9-4.8-2.9-8.3c-0.4-1.6-0.9-3.3-1.2-5.2
				h0.1c-0.3-1.5-0.6-3.1-0.8-4.7c-0.4-3.8-0.4-7.8,0.3-11.9c0.4-2.8,1.2-5.6,2.3-8.3l6.7,14.6h-0.6l0.2,1.9
				c-0.3,17,8.5,23.4,12.2,25.3c0.9,0.5,1.6,0.7,1.7,0.7l3.3,1.1l-0.7-1.4l-21-45.4l-1.4-3.1l-0.4-0.9l-1.7-3.6L83.2,91.6l-1.7-3.7
				l-4.8-10.5l-0.4-0.9h-1c0,0-2.6,0-2.6-1.5c0-1.4,1.1-1.6,1.7-1.7l16.1,0.1c0.1,0.2,0.2,0.7,0.2,1.5c0,0.5-0.1,0.9-0.3,1
				c-0.2,0.2-0.7,0.1-1,0.1l-3.2-0.9L94,91.8l1.7,3.7l16.7,36l1.4,3l1.8,4l1.3,2.7l22.6,48.7l15.4-33.8l1.8-3.8l10-21.8l1.3-2.8
				L182.1,96.3z M157.8,188.2l11.2-27.1C169.7,167.2,169.2,179.3,157.8,188.2z M117.1,172.2l7.9,17.1
				C121.8,186.8,117.8,181.7,117.1,172.2z M123,104.3l14.2,14.1l2.8,2.8l18.9,18.8l-4,8.9c-1.4-2.4-3.1-4.6-5-6.5
				c-0.3-0.3-0.5-0.5-0.8-0.8c-5.1-4.6-11.6-7.5-18.7-7.5c-4.3,0-8.4,1-12.1,2.9l-2.3-4.9l-1.4-2.9l-15-32.4L123,104.3z
				 M147.1,143.9L147,144c0.2,0.2,0.4,0.3,0.6,0.5c2.2,1.9,3.6,4.8,3.6,8c0,0.2,0,0.5,0,0.7c-0.1,1.6-0.5,3.1-1.3,4.4
				c-0.8,1.5-2,2.7-3.3,3.7c-1.7,0.8-3.9,1.3-6.2,1.3c-1.6,0-3.1-0.2-4.5-0.6c-3-0.9-5.1-2.6-5.1-4.5c0-0.3,0.1-0.5,0.1-0.8
				c0.6-1.9,3.2-3.5,6.5-4.1c0.9-0.2,1.9-0.3,3-0.3c0,0,0,0,0.1,0l0.3-3c-0.1,0-0.2,0-0.3,0c-0.7,0-1.3,0-1.9,0.1
				c-0.2-0.3-0.5-0.5-0.7-0.7c-1.4-1.1-3.6-1.5-6.3-1.3c-0.2,0-0.4,0-0.6,0.1c-0.9,0.1-1.9,0.3-3,0.7c-1.4,0.4-2.8,1-3.8,1.8
				l-4.7-10c3.3-1.7,7-2.6,10.9-2.6c3.3,0,6.4,0.7,9.3,1.9C142.3,140.2,144.9,141.9,147.1,143.9z M127.2,151.5c0.9-0.4,2-0.7,3.1-1
				c0.7-0.1,1.4-0.2,2.2-0.3c0.6,0,1.1,0,1.6,0.1c-1.6,0.6-2.9,1.4-4,2.3c-1.3,1.2-2.1,2.7-2.3,4.2c0,0.2,0,0.3,0,0.5s0,0.4,0,0.5
				l-2.5-5.4C125.7,152.3,126.3,151.9,127.2,151.5z M134.9,164.8c1.6,0.5,3.5,0.8,5.5,0.8c2.8,0,5.4-0.6,7.5-1.6c0,0,0,0,0.1,0
				l-8.6,18.8l-9.8-21.2C130.8,163,132.7,164.1,134.9,164.8z M138,73.2c8.4,0,15.3,5.7,15.6,12.7c0,0.2,0,0.3,0,0.5
				c0,1.6-0.4,3.2-1,4.7c-0.6,1.2-1.3,2.4-2.3,3.4c-1.1,0.7-2.5,1.1-4,1.1c-3.5,0-6.3-2.2-6.3-4.8c0-0.8,0.3-1.6,0.7-2.3
				c0.7-1,1.8-1.8,3.1-2.2l0.2-3.1c-0.5,0.1-1.1,0.3-1.6,0.5l0.3-0.6c-0.1,0-0.7-0.3-1.7-0.6c-1.8-0.5-4.8-0.9-6.9,0.8
				c-2.5,2.1-3,6.2-1.5,12.6V96c0.2,0.7,1.1,1.9,2.3,3.4c0.8,1,1.8,2.1,2.9,3.2c5.4,5.6,13.7,13.3,20,18.9c2.8,2.5,5.1,4.6,6.6,5.9
				l-0.5,1.1L160,137l-15.7-15.7l-3.1-3.1l-16.5-16.4l-0.9-4.8l-1.3-6.7c0.1,0,0.3-0.1,0.4-0.2c-0.1-0.3-0.2-0.5-0.2-0.8
				c-0.2-0.9-0.4-1.9-0.4-2.9C122.3,79.1,129.3,73.2,138,73.2z M71.1,53.1c13,5.8,35.6,2.7,41.6,1.7l6.6,35.2l0.2,1l1.8,9.7
				l-23.6-7.5l-6.5-14.4c0.3-0.1,0.6-0.3,0.9-0.5c0.7-0.5,1.5-1.5,1.5-3.4c0-2-0.5-3.3-1.4-4c-0.6-0.4-1.2-0.5-1.7-0.5l-16.2-0.1
				c-1.2,0-2.7,0.6-3.7,1.8C70.6,65.6,70.8,58.2,71.1,53.1z M70.5,84.4c0-1.3,0-3.8,0-6.8c1,1.2,2.5,1.7,3.8,1.9l3.3,7.2L70.5,84.4z
				"/>
			<path class="st2" d="M176.1,270.5l-1.4-3.3l-1.3-3l-12.6-29.3h-1c-4.7,0.1-12.2,0.5-15.4,2.2c-3.7-1.9-12.9-1.8-17-1.7h-1.1
				l-9,28.6l-0.9,3l-1,3.3l-0.9,3l-0.2,0.6l2.2-0.1c13-0.7,27.8-0.2,29.2,1.8l1.4,1.9l1.1-2c1.2-1.7,13.7-2.3,27.2-1.2l2.5,0.2
				l-0.5-1.1L176.1,270.5z M119.6,267.2l0.9-3l8.1-25.7c7.2-0.2,13.8,0.4,14.7,1.4l1.3,1.9l1.2-1.9c0.9-0.9,6.8-1.8,13.2-1.9
				l11.3,26.2l1.3,3l1.4,3.3l0.3,0.7c-8.1-0.5-21.8-0.9-26.3,1.8c-3.4-1.8-11.7-2.3-19-2.3c-3.6,0-6.9,0.1-9.4,0.2l0.1-0.4
				L119.6,267.2z"/>
		</g>
	</g>
</g>
</svg>
