<?xml version="1.0" encoding="utf-8"?>
<!-- Generator: Adobe Illustrator 19.2.1, SVG Export Plug-In . SVG Version: 6.00 Build 0)  -->
<svg version="1.1" id="Capa_1" xmlns="http://www.w3.org/2000/svg" xmlns:xlink="http://www.w3.org/1999/xlink" x="0px" y="0px"
	 viewBox="0 0 448 512" style="enable-background:new 0 0 448 512;" xml:space="preserve">
<style type="text/css">
	.st0{fill:#FFB606;}
</style>
<path class="st0" d="M413.6,430.3L298.5,223.1V212h-45c-8.3,0-15-6.7-15-15s6.7-15,15-15h45v-30h-75c-8.3,0-15-6.7-15-15
	s6.7-15,15-15h75V92h-45c-8.3,0-15-6.7-15-15s6.7-15,15-15h45V30h15c8.3,0,15-6.7,15-15s-6.7-15-15-15h-180c-8.3,0-15,6.7-15,15
	s6.7,15,15,15h15v193.2L34.8,430.6C14.8,467.2,41.2,512,83.1,512h282.5C407.5,512,434,467,413.6,430.3z"/>
</svg>
