<?xml version="1.0" encoding="utf-8"?>
<!-- Generator: Adobe Illustrator 19.2.1, SVG Export Plug-In . SVG Version: 6.00 Build 0)  -->
<svg version="1.1" id="Capa_1" xmlns="http://www.w3.org/2000/svg" xmlns:xlink="http://www.w3.org/1999/xlink" x="0px" y="0px"
	 viewBox="0 0 512 512" style="enable-background:new 0 0 512 512;" xml:space="preserve">
<style type="text/css">
	.st0{fill:#FFB606;}
</style>
<g>
	<g>
		<path class="st0" d="M506,125c-3.7-2.8-8.6-3.7-13.1-2.5l-212,60c-6.5,1.8-10.9,7.7-10.9,14.4v203.1c-8.8-5.1-19.1-8.1-30-8.1
			c-33.1,0-60,26.9-60,60s26.9,60,60,60s60-26.9,60-60c0-1.6,0-183.7,0-183.7l182-51.5v123.2c-8.8-5.1-19.1-8.1-30-8.1
			c-33.1,0-60,26.9-60,60s26.9,60,60,60s60-26.9,60-60c0-1.3,0-255,0-255C512,132.3,509.8,127.9,506,125z M240,482
			c-16.5,0-30-13.5-30-30s13.5-30,30-30s30,13.5,30,30S256.5,482,240,482z M452,422c-16.5,0-30-13.5-30-30s13.5-30,30-30
			s30,13.5,30,30S468.5,422,452,422z M482,185.7l-182,51.5v-28.8l182-51.5V185.7z"/>
	</g>
</g>
<g>
	<g>
		<path class="st0" d="M209.3,106.5c-33.3-24.4-57.7-48.6-74.5-73.9L117.5,6.7c-3.7-5.5-10.5-8-16.8-6C94.3,2.6,90,8.4,90,15v235.1
			c-8.8-5.1-19.1-8.1-30-8.1c-33.1,0-60,26.9-60,60s26.9,60,60,60s60-26.9,60-60V63.4c17.9,23.1,41.5,45.2,71.6,67.3
			c11.5,8.5,18.4,22,18.4,36.3c0,24.8-20.2,45-45,45c-8.3,0-15,6.7-15,15s6.7,15,15,15c41.4,0,75-33.6,75-75
			C240,143.2,228.5,120.6,209.3,106.5z M60,332c-16.5,0-30-13.5-30-30s13.5-30,30-30s30,13.5,30,30S76.5,332,60,332z"/>
	</g>
</g>
</svg>
