<?xml version="1.0" encoding="utf-8"?>
<!-- Generator: Adobe Illustrator 19.2.1, SVG Export Plug-In . SVG Version: 6.00 Build 0)  -->
<svg version="1.1" id="Capa_1" xmlns="http://www.w3.org/2000/svg" xmlns:xlink="http://www.w3.org/1999/xlink" x="0px" y="0px"
	 viewBox="0 0 512 512" style="enable-background:new 0 0 512 512;" xml:space="preserve">
<style type="text/css">
	.st0{fill:#FFB606;}
</style>
<g>
	<g>
		<path class="st0" d="M437.1,74.9C388.7,26.6,324.4,0,256,0S123.3,26.6,74.9,74.9S0,187.6,0,256s26.6,132.7,74.9,181.1
			S187.6,512,256,512s132.7-26.6,181.1-74.9S512,324.4,512,256S485.4,123.3,437.1,74.9z M401.9,64.4
			c-82.5,34.1-160.1,79.1-230.7,133.9l-71.7-41.4c64.7-61.3,144-106.2,229.9-130.3C355.5,34.9,380,47.6,401.9,64.4z M85.7,85.7
			C131.2,40.3,191.6,15.2,256,15.2c15.2,0,30.2,1.4,44.8,4.1c-80.2,26.5-154.1,70.9-215,129.6L51.3,129C61,113.5,72.5,99,85.7,85.7z
			 M43.7,142.2l204.7,118.2v81.5c-81.8-34.1-158.6-79-228.5-133.6C24.5,185.1,32.5,162.9,43.7,142.2z M248.4,496.6
			c-61.5-1.9-119-26.7-162.7-70.3c-26.1-26.1-45.4-57.1-57.2-91c3.5,3.1,7,6.2,10.6,9.2c3.2,2.8,8.1,2.3,10.8-0.9
			c2.6-3.2,2.2-7.9-0.9-10.6c-9.7-8.3-19.2-16.9-28.4-25.9c-3.6-16.6-5.4-33.7-5.4-51.1c0-10.3,0.7-20.5,1.9-30.6
			c70.8,54.4,148.5,99.1,231.2,132.9v82.8c-61.8-18.4-119.3-47.1-171.1-85.6c-3.3-2.5-8-1.8-10.6,1.5l0,0c-2.6,3.4-1.9,8.2,1.5,10.8
			c54.4,40.4,114.9,70.4,180.1,89.2L248.4,496.6L248.4,496.6z M333.4,484.1c-22.3,7.5-45.7,11.8-69.8,12.5V260.4l70.5-40.7
			C345.7,307.5,345.5,396.4,333.4,484.1z M418.5,433.7c-20.5,18.8-43.8,33.7-68.9,44.3c11.4-88.5,11-178.1-1.3-266.5l23.3-13.4
			c3.6-2.1,4.9-6.8,2.8-10.4l0,0c-2.1-3.6-6.8-4.9-10.4-2.8l-108,62.4l-70.5-40.7c70.4-53.8,147.6-97.9,229.8-131.1
			c3.8,3.3,7.4,6.8,11,10.3C439.5,99,451,113.5,460.7,129l-65,37.5c-3.6,2.1-4.9,6.8-2.8,10.4l0,0c2.1,3.6,6.8,4.9,10.4,2.8
			l16.7-9.6C440.8,256.6,440.3,347.5,418.5,433.7z M433.7,162.2l34.6-20c18.6,34.6,28.4,73.4,28.4,113.8c0,58.1-20.4,113-57.8,156.6
			C455.9,330,454.1,244.1,433.7,162.2z"/>
	</g>
</g>
</svg>
